<svg width="40" height="23" viewBox="0 0 40 23" fill="none" xmlns="http://www.w3.org/2000/svg">
<path d="M39.0878 10.9025C39.6735 11.4883 39.6735 12.438 39.0878 13.0238L29.5418 22.5697C28.956 23.1555 28.0063 23.1555 27.4205 22.5697C26.8347 21.9839 26.8347 21.0342 27.4205 20.4484L35.9058 11.9631L27.4205 3.47785C26.8347 2.89207 26.8347 1.94232 27.4205 1.35653C28.0063 0.770746 28.956 0.770746 29.5418 1.35653L39.0878 10.9025ZM1.71545 13.4631C0.887028 13.4631 0.215454 12.7916 0.215454 11.9631C0.215454 11.1347 0.887028 10.4631 1.71545 10.4631V13.4631ZM38.0271 13.4631H1.71545V10.4631H38.0271V13.4631Z" fill="#E8272D"/>
</svg>
