<svg width="41" height="23" viewBox="0 0 41 23" fill="none" xmlns="http://www.w3.org/2000/svg">
<path d="M1.40955 10.9025C0.823768 11.4883 0.823768 12.438 1.40955 13.0238L10.9555 22.5697C11.5413 23.1555 12.491 23.1555 13.0768 22.5697C13.6626 21.9839 13.6626 21.0342 13.0768 20.4484L4.59154 11.9631L13.0768 3.47785C13.6626 2.89207 13.6626 1.94232 13.0768 1.35653C12.491 0.770746 11.5413 0.770746 10.9555 1.35653L1.40955 10.9025ZM38.7819 13.4631C39.6103 13.4631 40.2819 12.7916 40.2819 11.9631C40.2819 11.1347 39.6103 10.4631 38.7819 10.4631V13.4631ZM2.47021 13.4631H38.7819V10.4631H2.47021V13.4631Z" fill="white"/>
</svg>
