<svg width="18" height="16" viewBox="0 0 18 16" fill="none" xmlns="http://www.w3.org/2000/svg">
<path d="M17.4702 7.04192C17.8607 7.43244 17.8607 8.06561 17.4702 8.45613L11.1062 14.8201C10.7157 15.2106 10.0825 15.2106 9.69199 14.8201C9.30147 14.4296 9.30147 13.7964 9.69199 13.4059L15.3488 7.74902L9.69199 2.09217C9.30147 1.70164 9.30147 1.06848 9.69199 0.677956C10.0825 0.287431 10.7157 0.287431 11.1062 0.677956L17.4702 7.04192ZM1.38297 8.74902C0.830684 8.74902 0.382969 8.30131 0.382969 7.74902C0.382969 7.19674 0.830684 6.74902 1.38297 6.74902V8.74902ZM16.7631 8.74902H1.38297V6.74902H16.7631V8.74902Z" fill="white"/>
</svg>
