<svg width="19" height="16" viewBox="0 0 19 16" fill="none" xmlns="http://www.w3.org/2000/svg">
<path d="M1.14555 7.04192C0.75503 7.43244 0.75503 8.06561 1.14555 8.45613L7.50952 14.8201C7.90004 15.2106 8.5332 15.2106 8.92373 14.8201C9.31425 14.4296 9.31425 13.7964 8.92373 13.4059L3.26687 7.74902L8.92373 2.09217C9.31425 1.70164 9.31425 1.06848 8.92373 0.677956C8.5332 0.287431 7.90004 0.287431 7.50952 0.677956L1.14555 7.04192ZM17.2328 8.74902C17.785 8.74902 18.2328 8.30131 18.2328 7.74902C18.2328 7.19674 17.785 6.74902 17.2328 6.74902V8.74902ZM1.85266 8.74902H17.2328V6.74902H1.85266V8.74902Z" fill="white"/>
</svg>
