<svg width="74" height="69" viewBox="0 0 74 69" fill="none" xmlns="http://www.w3.org/2000/svg">
<g clip-path="url(#clip0_54_2403)">
<path d="M37.0727 68.339C25.5034 68.3394 13.9342 68.3405 2.36493 68.3343C1.99716 68.3341 1.59971 68.3334 1.26833 68.2012C0.701922 67.9753 0.579168 67.4648 0.58019 66.8765C0.591277 60.5028 0.586557 54.129 0.586641 47.7552C0.58672 41.8251 0.602653 35.8948 0.570363 29.9648C0.565829 29.1321 0.867286 28.6325 1.53732 28.1952C4.30619 26.3883 7.04464 24.5345 9.81113 22.7238C10.2473 22.4383 10.421 22.146 10.4192 21.6088C10.3975 15.1183 10.4049 8.6278 10.4054 2.1373C10.4056 0.708819 10.7691 0.339304 12.1704 0.339355C28.7445 0.339973 45.3185 0.340713 61.8926 0.341768C63.4003 0.341864 63.739 0.682515 63.739 2.19643C63.7394 8.66359 63.7461 15.1308 63.7268 21.5979C63.7252 22.1285 63.8827 22.4331 64.3278 22.7235C67.1164 24.5429 69.8758 26.4073 72.664 28.2275C73.3199 28.6556 73.5717 29.1686 73.5703 29.9608C73.5494 42.218 73.5567 54.4752 73.5564 66.7325C73.5564 67.9883 73.2046 68.3374 71.92 68.3376C60.3043 68.3394 48.6885 68.3387 37.0727 68.339ZM12.9073 2.84889C12.8927 3.06739 12.87 3.24892 12.87 3.43045C12.8684 13.4441 12.8717 23.4578 12.8588 33.4715C12.8582 33.9118 13.0141 34.1348 13.3873 34.3328C19.7783 37.7238 26.1647 41.1235 32.5446 44.5355C32.9527 44.7538 33.2456 44.7284 33.6176 44.4629C34.4701 43.8545 35.3604 43.2997 36.2283 42.7127C36.7955 42.3291 37.3454 42.3266 37.9131 42.7112C38.7612 43.2858 39.6318 43.828 40.4645 44.4238C40.8729 44.7159 41.189 44.75 41.6557 44.4999C48.0127 41.0941 54.3808 37.7092 60.7547 34.3354C61.1683 34.1165 61.286 33.8601 61.2854 33.4063C61.2719 23.4626 61.2753 13.519 61.2736 3.57533C61.2735 3.33086 61.2526 3.08638 61.2418 2.84888L12.9073 2.84889ZM68.2026 65.8312C67.8896 65.6115 67.7057 65.4762 67.5159 65.3499C57.5542 58.7224 47.5894 52.0995 37.6382 45.4562C37.1896 45.1567 36.9106 45.1831 36.4832 45.4684C27.635 51.3743 18.776 57.2639 9.91934 63.157C8.63024 64.0148 7.34208 64.874 5.90533 65.8312H68.2026ZM30.7743 46.346C21.451 41.3821 12.2649 36.4913 3.03822 31.5789V64.7992C12.3026 58.6355 21.4795 52.5299 30.7743 46.346ZM43.3687 46.3471C52.6607 52.5289 61.8507 58.6427 71.1164 64.8069V31.5723C61.854 36.5042 52.6684 41.3953 43.3687 46.3471ZM63.7792 28.2633H68.2691C66.6942 27.2166 65.2778 26.2752 63.7792 25.2792V28.2633ZM10.3718 25.271C8.85511 26.2812 7.44238 27.2221 5.87258 28.2676H10.3718V25.271ZM63.7598 32.7183C64.9772 32.068 66.1004 31.4681 67.3953 30.7764H63.7598V32.7183ZM10.3729 30.7654H6.95199C6.94207 30.8018 6.93215 30.8382 6.92223 30.8746C8.05105 31.4744 9.17987 32.0743 10.3729 32.7082V30.7654Z" fill="#E8272D"/>
<path d="M40.0436 24.2344C38.5454 25.3764 36.9192 25.7928 35.1069 25.2486C32.5297 24.4747 30.997 21.8919 31.4948 19.1664C31.9666 16.583 34.4432 14.7819 37.2107 15.0096C39.7475 15.2184 41.804 17.4912 41.8365 20.126C41.8434 20.6862 41.8261 21.2469 41.8415 21.8067C41.8735 22.9679 42.6355 23.7507 43.702 23.7359C44.7411 23.7215 45.4483 22.9513 45.4699 21.8102C45.5471 17.7451 43.7081 14.692 40.3072 13.2388C34.9079 10.9318 28.851 14.9227 28.6508 20.8018C28.4905 25.5065 31.697 28.8937 35.27 29.636C35.903 29.7675 36.5595 29.8389 37.2058 29.8433C40.3245 29.8646 43.4434 29.8492 46.5623 29.8563C47.6013 29.8587 48.2131 30.7144 47.8013 31.5776C47.5511 32.1018 47.1093 32.2671 46.5408 32.2647C43.3988 32.2512 40.2566 32.2639 37.1145 32.2579C32.0115 32.2482 27.7757 28.9242 26.5288 23.9599C25.0541 18.0882 28.4957 12.0585 34.195 10.5286C41.2199 8.6429 47.8615 13.8156 47.9466 21.2279C47.9608 22.4741 47.7752 23.646 46.9571 24.6397C45.2943 26.6594 42.2717 26.7229 40.5095 24.7763C40.3561 24.6069 40.2112 24.4298 40.0436 24.2344ZM36.5922 23.0104C38.1559 23.0204 39.4105 21.8074 39.4361 20.2608C39.461 18.7561 38.1564 17.4162 36.6602 17.4098C35.1184 17.4032 33.8556 18.6506 33.8426 20.1931C33.8292 21.7717 35.0284 23.0004 36.5922 23.0104Z" fill="#E8272D"/>
</g>
<defs>
<clipPath id="clip0_54_2403">
<rect width="73" height="68" fill="white" transform="translate(0.570312 0.339355)"/>
</clipPath>
</defs>
</svg>
