<svg width="67" height="69" viewBox="0 0 67 69" fill="none" xmlns="http://www.w3.org/2000/svg">
<g clip-path="url(#clip0_54_2397)">
<path d="M66.7767 37.5931C65.2297 35.0045 63.198 33.0126 60.6399 31.5535C60.7118 31.5003 60.7353 31.4677 60.7594 31.4672C61.8364 31.4446 61.8498 31.4431 61.6829 30.231C60.9725 25.0707 59.0614 20.4207 55.9011 16.3064C55.1816 15.3696 55.1793 15.3745 54.2538 16.1148C52.0492 17.8785 49.6681 19.3492 47.0972 20.4936C46.6662 20.6854 46.5075 20.8626 46.569 21.3966C46.8932 24.2111 47.1441 27.0343 47.4395 29.8524C47.4915 30.3486 47.3453 30.5904 46.8697 30.7866C44.1344 31.9145 41.8882 33.7042 40.1366 36.1128C39.8519 36.5042 39.5584 36.63 39.0943 36.6283C34.5182 36.6116 29.942 36.618 25.3658 36.6185C24.611 36.6185 24.571 36.623 24.6324 37.3984C24.8322 39.9217 25.0546 42.4433 25.2894 44.9635C25.3521 45.6369 25.4238 45.6593 26.0508 45.5183C29.6333 44.7127 33.2493 44.4815 36.8166 44.8478C37.0611 46.6112 37.3011 48.3424 37.5448 50.1C37.1035 50.0583 36.5831 50.0067 36.0622 49.9604C32.9902 49.6877 29.9516 49.886 26.9452 50.6002C26.5272 50.6995 26.3941 50.8411 26.5121 51.292C27.281 54.2296 28.2165 57.103 29.8001 59.7049C30.2941 60.5165 30.8887 61.2922 31.5566 61.9619C32.7943 63.203 34.2085 63.227 35.4203 61.9696C36.2213 61.1385 36.9343 60.1751 37.4947 59.1616C38.2729 57.7544 38.8711 56.2447 39.5526 54.7653C39.5934 54.8341 39.6698 54.9594 39.7426 55.0868C40.6498 56.6748 41.548 58.2682 42.4715 59.8464C42.6312 60.1193 42.6967 60.3226 42.5304 60.618C42.4315 60.7936 42.4503 61.0374 42.4162 61.2506C42.6293 61.2389 42.8428 61.2318 43.0552 61.213C43.1219 61.2071 43.1859 61.17 43.2603 61.144C44.2995 62.5599 45.3346 63.9701 46.3708 65.3818C35.8344 70.1363 19.8595 69.2047 8.68892 56.909C-1.98833 45.1563 -2.93819 27.029 6.46623 13.9527C15.8924 0.846183 33.2605 -3.68499 47.8043 3.32091C62.7765 10.5332 68.2174 25.8418 66.7767 37.5931ZM12.3684 36.6184C10.1858 36.6184 8.00321 36.6214 5.82065 36.6156C5.43693 36.6146 5.16659 36.6604 5.22556 37.1721C5.87474 42.8051 7.93617 47.8346 11.4464 52.2532C11.6934 52.5641 11.8842 52.7099 12.2545 52.3985C14.637 50.3951 17.2533 48.7717 20.0912 47.5191C20.3927 47.386 20.4782 47.2283 20.4422 46.867C20.1234 43.6751 19.8263 40.4809 19.556 37.2844C19.5136 36.7823 19.3704 36.6032 18.8632 36.6086C16.6984 36.6314 14.5333 36.6183 12.3684 36.6184ZM12.349 31.4634C14.5315 31.4634 16.7142 31.4505 18.8964 31.4734C19.3822 31.4785 19.5146 31.3114 19.555 30.8326C19.8231 27.6539 20.1108 24.4767 20.4348 21.3035C20.4795 20.866 20.3612 20.6951 20.0088 20.5403C17.2834 19.3429 14.7782 17.7755 12.4652 15.8883C12.0388 15.5404 11.65 15.5919 11.2986 16.0427C7.9072 20.3829 5.88063 25.2972 5.25381 30.8029C5.18466 31.4104 5.20795 31.4618 5.80146 31.4624C7.98397 31.4649 10.1665 31.4634 12.349 31.4634ZM33.4871 31.4633C36.2498 31.4633 39.0126 31.4554 41.7753 31.4712C42.2218 31.4737 42.4239 31.3619 42.3796 30.8703C42.1461 28.2789 41.9262 25.6862 41.7091 23.0933C41.6669 22.5895 41.4686 22.4382 40.9555 22.5579C35.9934 23.7163 31.0264 23.7142 26.06 22.5713C25.4434 22.4294 25.3509 22.4717 25.2907 23.1251C25.055 25.6806 24.85 28.239 24.6183 30.7949C24.5722 31.3034 24.7278 31.4788 25.2517 31.4743C27.9967 31.4508 30.7419 31.4633 33.4871 31.4633ZM33.4822 18.2732C35.7048 18.2711 37.8972 17.9997 40.0637 17.504C40.3647 17.4352 40.6231 17.3685 40.5046 16.9065C39.7417 13.932 38.8001 11.0246 37.1935 8.39875C36.6539 7.51686 35.9852 6.6796 35.2357 5.97506C34.1035 4.91095 32.8739 4.91011 31.746 5.98941C30.9651 6.73669 30.2737 7.62423 29.7119 8.55449C28.1677 11.1113 27.2629 13.9392 26.5078 16.8222C26.3836 17.2965 26.569 17.4261 26.9515 17.5122C29.1025 17.996 31.2769 18.2672 33.4822 18.2732ZM24.6554 7.09551C24.5917 6.60326 24.2831 6.76904 24.0312 6.85953C21.1138 7.90773 18.4348 9.39908 15.9966 11.3328C15.5268 11.7054 15.5055 11.824 16.0109 12.1574C17.6112 13.2132 19.223 14.2523 20.8541 15.2584C21.506 15.6605 21.5742 15.5963 21.7702 14.8646C22.4566 12.3024 23.3071 9.80239 24.506 7.43424C24.5618 7.32409 24.6061 7.20798 24.6554 7.09551ZM42.6447 6.7551C42.2278 6.84539 42.3239 7.09886 42.4544 7.35597C43.6968 9.80267 44.574 12.3881 45.2709 15.0394C45.3916 15.4989 45.5977 15.5987 45.9793 15.3566C47.6426 14.3014 49.3133 13.2578 50.9601 12.1767C51.506 11.8183 51.4785 11.7069 50.9431 11.2863C48.5392 9.39782 45.9122 7.92089 43.0436 6.89128C42.9117 6.84392 42.7783 6.80061 42.6447 6.7551ZM24.723 61.1849C24.6233 60.9481 24.5879 60.8484 24.5409 60.7547C23.3191 58.3196 22.434 55.7579 21.7402 53.1233C21.5902 52.5536 21.4672 52.474 20.9768 52.7785C19.304 53.8173 17.6432 54.8766 15.995 55.9549C15.5083 56.2733 15.5359 56.4072 16.0085 56.781C17.7312 58.1436 19.5784 59.303 21.5665 60.2206C22.4105 60.6103 23.2803 60.9447 24.1499 61.2731C24.2954 61.3281 24.4994 61.2237 24.723 61.1849Z" fill="#E8272D"/>
<path d="M39.3418 45.9959C39.5416 38.738 44.2423 33.2673 50.8939 32.1222C57.7685 30.9386 64.77 35.8293 66.2552 42.7756C66.892 45.7542 66.4006 48.5502 65.245 51.2744C62.8645 56.8856 59.5447 61.8714 55.3845 66.2794C54.8424 66.8537 54.1864 67.3221 53.5586 67.8067C53.1563 68.1173 52.6895 68.1226 52.2837 67.8105C51.6831 67.3486 51.0643 66.8952 50.5359 66.3551C47.4922 63.2444 45.0424 59.6795 42.8989 55.8923C41.5318 53.4769 40.3233 50.9822 39.6971 48.2483C39.4955 47.3681 39.4128 46.4598 39.3418 45.9959ZM53.008 35.7256C47.614 35.7151 43.2479 40.1059 43.2384 45.5503C43.229 50.9512 47.5971 55.3984 52.933 55.4205C58.2628 55.4426 62.6471 51.0143 62.657 45.599C62.6669 40.1444 58.3587 35.7361 53.008 35.7256Z" fill="#E8272D"/>
</g>
<defs>
<clipPath id="clip0_54_2397">
<rect width="67" height="68" fill="white" transform="translate(0 0.0419922)"/>
</clipPath>
</defs>
</svg>
