<svg width="24" height="25" viewBox="0 0 24 25" fill="none" xmlns="http://www.w3.org/2000/svg">
<path d="M21.75 4.47154H2.25C1.83516 4.47154 1.5 4.8067 1.5 5.22154V20.2215C1.5 20.6364 1.83516 20.9715 2.25 20.9715H21.75C22.1648 20.9715 22.5 20.6364 22.5 20.2215V5.22154C22.5 4.8067 22.1648 4.47154 21.75 4.47154ZM19.8563 7.02389L12.4617 12.7778C12.2789 12.9208 12.0234 12.9208 11.8406 12.7778L4.44375 7.02389C4.41587 7.00237 4.39541 6.97266 4.38526 6.93894C4.37511 6.90521 4.37576 6.86915 4.38713 6.83582C4.3985 6.80248 4.42002 6.77354 4.44867 6.75305C4.47731 6.73255 4.51165 6.72154 4.54688 6.72154H19.7531C19.7883 6.72154 19.8227 6.73255 19.8513 6.75305C19.88 6.77354 19.9015 6.80248 19.9129 6.83582C19.9242 6.86915 19.9249 6.90521 19.9147 6.93894C19.9046 6.97266 19.8841 7.00237 19.8563 7.02389Z" fill="white"/>
</svg>
