<svg width="17" height="18" viewBox="0 0 17 18" fill="none" xmlns="http://www.w3.org/2000/svg">
<g clip-path="url(#clip0_9_107)">
<path d="M3.4323 0.230531L3.81832 0.221542C4.48052 0.279705 5.11181 0.228945 5.55515 0.779643C5.84706 1.14237 5.91561 1.89664 5.93781 2.34793C5.96534 2.90973 6.02574 3.80095 5.87263 4.32257C5.54279 5.44458 4.2552 5.83507 3.35447 6.46984C3.33481 6.48306 3.33003 6.50156 3.32582 6.52245C3.29856 6.65252 3.43623 7.2212 3.47528 7.38591C4.031 9.73067 5.63747 11.8153 7.81736 13.0502L7.87243 13.0478C8.39415 12.7501 8.89705 12.3893 9.42018 12.0984C10.769 11.3489 11.7546 11.9187 13.002 12.5273C14.5689 13.2916 14.8046 13.7875 14.0547 15.35C13.6968 16.0956 13.3279 16.6753 12.4851 16.9899C11.3284 17.4219 10.0919 17.1755 8.94734 16.8448C2.94344 15.11 -0.846853 9.38725 0.161758 3.51912C0.457036 1.80173 1.3041 0.160207 3.4323 0.230531Z" fill="white"/>
<path d="M11.2925 0.969465C11.7555 0.929544 12.9293 1.54422 13.3454 1.7967C15.2466 2.95045 16.5744 4.89124 16.9081 7.00282C16.9716 7.40362 17.0921 8.12114 16.8797 8.47303C16.5123 9.08215 15.5017 8.94071 15.3253 8.25439C15.2699 8.03918 15.3067 7.83878 15.2842 7.63257C15.037 5.36289 13.6898 3.63545 11.5136 2.6747C11.2756 2.56974 11.0073 2.53141 10.8065 2.36273C10.2468 1.8932 10.5631 1.03212 11.2922 0.969201L11.2925 0.969465Z" fill="white"/>
<path d="M9.94427 4.45608C10.5281 4.38417 11.551 5.07551 11.9449 5.46547C12.5959 6.10976 13.1642 7.28518 13.0668 8.18671C12.9923 8.87488 12.0635 9.1427 11.5786 8.61024C11.3291 8.33634 11.4035 8.11771 11.3513 7.79384C11.2392 7.09906 10.7537 6.44975 10.0921 6.12588C9.80239 5.98418 9.50346 5.95668 9.32787 5.65635C9.04046 5.16567 9.34332 4.5301 9.94427 4.45581V4.45608Z" fill="white"/>
</g>
<defs>
<clipPath id="clip0_9_107">
<rect width="17" height="17" fill="white" transform="translate(0 0.221542)"/>
</clipPath>
</defs>
</svg>
