<svg width="68" height="69" viewBox="0 0 68 69" fill="none" xmlns="http://www.w3.org/2000/svg">
<g clip-path="url(#clip0_54_2400)">
<path d="M67.9896 19.2162C67.9884 16.4003 67.975 13.5845 67.9671 10.7686C67.9776 10.0864 67.9999 9.40422 67.9967 8.72211C67.9734 3.72515 64.309 0.0170484 59.3743 0.0039823C56.1774 -0.00448727 52.9805 0.00307623 49.7835 0.0037883C36.9397 0.00662975 24.0958 0.00412152 11.252 0.0157543C7.19274 0.0194311 3.79101 2.71904 2.92167 6.61425C2.49568 8.52305 2.74227 10.4685 2.71256 12.3971C2.70367 12.9758 2.57713 13.1854 1.96965 13.177C0.726824 13.1599 -0.0146325 13.8521 0.00771908 14.8939C0.029578 15.911 0.745551 16.5588 1.95238 16.5451C2.53541 16.5384 2.71218 16.7037 2.70926 17.3072C2.68548 22.2296 2.68765 27.1521 2.70366 32.0746C2.70542 32.6105 2.5852 32.8153 2.01109 32.8122C0.72899 32.8052 0.0137591 33.4416 0.00458545 34.4849C-0.00458596 35.5299 0.726572 36.1935 1.98302 36.1899C2.51759 36.1883 2.70701 36.3207 2.70443 36.8972C2.68238 41.8481 2.68427 46.7991 2.69817 51.75C2.69954 52.2473 2.5969 52.4441 2.05357 52.4465C0.712157 52.4525 -0.0135662 53.0953 0.000192082 54.1592C0.0136466 55.202 0.730994 55.8398 2.00925 55.831C2.58624 55.827 2.71045 56.0344 2.6991 56.5689C2.66961 57.9624 2.6701 59.3575 2.69729 60.7512C2.78835 65.4174 6.84924 69.2227 11.4477 68.9681C11.5876 68.9751 11.7275 68.9883 11.8674 68.9883C27.7637 68.9939 43.66 68.9989 59.5563 69C59.9476 69 60.3447 68.9912 60.729 68.9256C65.1347 68.1743 67.9987 64.7373 67.9995 60.1787C68.0019 46.5245 67.9954 32.8704 67.9896 19.2162ZM64.6332 22.4648C64.6275 34.9587 64.6261 47.4526 64.6217 59.9465C64.6205 63.4612 62.5389 65.5728 59.075 65.574C44.4051 65.5792 29.7353 65.5828 15.0654 65.5882C14.7011 65.5883 14.3368 65.6016 13.9725 65.6088C12.6633 65.4682 11.3374 65.7402 10.0341 65.4369C7.69052 64.8916 6.08903 62.9081 6.06009 60.4826C6.04515 59.2306 6.09851 57.9763 6.04004 56.727C6.00679 56.0164 6.21291 55.7725 6.91812 55.8336C7.64598 55.8968 8.2207 55.5686 8.56343 54.883C8.85879 54.2922 8.79547 53.7256 8.44321 53.1869C8.08622 52.6408 7.55157 52.3644 6.93311 52.4464C6.11913 52.5544 6.03859 52.1707 6.04213 51.4807C6.06668 46.6999 6.06893 41.9188 6.03581 37.1381C6.03079 36.4117 6.16922 36.1049 6.94678 36.1873C7.63727 36.2606 8.19518 35.9303 8.53668 35.2878C8.86329 34.6734 8.8019 34.0783 8.41852 33.5182C8.05126 32.9817 7.5137 32.7472 6.88997 32.8045C6.25193 32.8631 6.03021 32.6756 6.03466 31.975C6.06564 27.1089 6.05913 22.2424 6.03609 17.3763C6.03323 16.7718 6.1417 16.5237 6.80874 16.542C7.99978 16.5746 8.72594 15.8948 8.73802 14.8783C8.75038 13.8375 8.01461 13.1702 6.76011 13.1731C6.22705 13.1744 6.00492 13.0463 6.03895 12.4655C6.13846 10.7658 5.84272 9.04573 6.20912 7.36228C6.7154 5.03608 8.7104 3.41514 11.0649 3.41436C27.2202 3.40903 43.3755 3.41146 59.5308 3.42437C62.4199 3.42668 64.5991 5.68473 64.6242 8.63664C64.638 10.258 64.6455 11.8794 64.6558 13.5008C64.6479 16.4888 64.6346 19.4768 64.6332 22.4648Z" fill="#E8272D"/>
<path d="M54.4018 47.0657C52.8673 43.048 50.2567 39.9972 46.7162 37.7001C45.684 37.0305 44.5581 36.5449 43.362 35.9654C45.4002 34.6281 46.8285 32.8851 47.8033 30.7544C49.156 28.0441 49.2564 25.2117 48.529 22.3278C46.9356 16.0099 40.607 11.896 34.2613 13.2271C29.1064 14.3085 25.688 17.5369 24.5197 22.7732C23.3812 27.8757 24.971 32.1958 28.9928 35.5177C29.6247 36.0396 29.4294 36.1573 28.8329 36.4078C26.8999 37.2195 25.1742 38.3767 23.6375 39.8133C20.1007 43.1196 18.0381 47.1922 17.424 52.041C17.1717 54.0324 18.5673 55.9136 20.5449 55.9953C21.8306 56.0485 23.1211 55.9845 24.4094 55.973C24.6612 55.9819 24.9129 55.9986 25.1647 55.9987C34.1046 56.0025 43.0445 56.006 51.9844 56.0065C54.6165 56.0066 56.0873 54.2556 55.6522 51.6257C55.3936 50.0628 54.9718 48.5581 54.4018 47.0657ZM27.567 25.4446C27.5923 20.4409 31.6575 16.3886 36.634 16.4064C41.5718 16.4241 45.6233 20.6062 45.5985 25.6597C45.574 30.6673 41.5144 34.7232 36.545 34.7048C31.455 34.686 27.5408 30.6487 27.567 25.4446ZM51.5759 52.6025C43.7252 52.5858 35.8744 52.5949 28.0236 52.5988C27.6595 52.599 27.2953 52.6131 26.9312 52.6208C25.1939 52.6097 23.4552 52.5541 21.7198 52.6077C20.935 52.632 20.7348 52.3845 20.8788 51.6421C21.993 45.8979 25.1416 41.7969 30.4374 39.4292C33.5448 38.0399 36.7777 37.9823 40.063 38.5383C44.6523 39.6917 48.1412 42.3305 50.4815 46.5068C51.4046 48.1539 51.9359 49.9396 52.2852 51.7956C52.4135 52.4769 52.2074 52.6039 51.5759 52.6025Z" fill="#E8272D"/>
</g>
<defs>
<clipPath id="clip0_54_2400">
<rect width="68" height="69" fill="white"/>
</clipPath>
</defs>
</svg>
