<svg width="142" height="120" viewBox="0 0 142 120" fill="none" xmlns="http://www.w3.org/2000/svg">
<g opacity="0.6" clip-path="url(#clip0_632_298)">
<path d="M12.6602 118.041C11.6953 117.077 11.1226 115.828 11.0272 114.452C10.7621 110.524 11.1439 106.172 11.1439 102.234C12.6072 96.4957 18.5244 98.1049 22.9675 97.9038C29.892 97.5968 35.9576 94.0818 39.913 88.4917C43.1579 83.9074 44.0592 78.6985 43.7411 73.1296C43.4866 68.6512 40.1463 65.4856 35.7031 65.2527C29.0013 64.9033 21.9601 65.6232 15.2689 65.2527C7.04004 64.808 0.210948 57.5981 0.136719 49.3824V15.969C0.200344 7.46738 7.34756 0.225694 15.8627 0.0245361H49.7112C57.834 0.172758 64.8646 6.82156 65.4478 14.9102V78.3809C64.1329 101.26 45.7241 118.951 22.8084 119.671C20.8149 119.735 18.2911 119.798 16.3293 119.671C14.9401 119.576 13.6358 119.025 12.6602 118.051V118.041Z" fill="black" fill-opacity="0.05"/>
<path d="M88.8849 118.041C87.9199 117.077 87.3473 115.828 87.2518 114.452C86.9867 110.524 87.3685 106.172 87.3685 102.234C88.8318 96.4957 94.749 98.1049 99.1921 97.9038C106.117 97.5968 112.182 94.0818 116.138 88.4917C119.382 83.9074 120.284 78.6985 119.966 73.1296C119.711 68.6512 116.371 65.4856 111.928 65.2527C105.226 64.9033 98.1847 65.6232 91.4935 65.2527C83.2646 64.808 76.4356 57.5981 76.3613 49.3824V15.969C76.4356 7.46738 83.5722 0.225694 92.0979 0.0245361H125.946C134.069 0.172758 141.1 6.82156 141.683 14.9102V78.3809C140.368 101.26 121.959 118.951 99.0437 119.671C97.0501 119.735 94.5263 119.798 92.5645 119.671C91.1754 119.576 89.871 119.025 88.8955 118.051L88.8849 118.041Z" fill="black" fill-opacity="0.05"/>
</g>
<defs>
<clipPath id="clip0_632_298">
<rect width="141.555" height="119.71" fill="white" transform="translate(0.126953 0.0245361)"/>
</clipPath>
</defs>
</svg>
