<svg id="Layer_1" data-name="Layer 1" xmlns="http://www.w3.org/2000/svg" viewBox="0 0 64 72"><path d="M2.93,33.86V11.06a8.74,8.74,0,0,1,.56-3.62A5.3,5.3,0,0,1,8.73,4.32q18.42,0,36.82,0c3.69,0,5.78,2.26,5.79,6,0,9.19,0,18.38,0,27.57a3,3,0,0,0,2,3.25,13.27,13.27,0,0,1,7.78,12.66,13.23,13.23,0,0,1-8.2,12.55c-5.29,2.4-10.33,1.65-14.84-2a4.23,4.23,0,0,0-2.91-1c-8.58,0-17.15-.11-25.73.07-4.14.09-6.54-2.35-6.5-6.53C3,49.16,2.93,41.51,2.93,33.86Zm3.8-.12v22.8c0,2.8.12,2.93,3,2.93H32.05c.26,0,.52,0,.77,0,1.08.09,1.36-.27,1-1.34a10.59,10.59,0,0,1-.7-3.3c0-1.56-.67-1.85-2.06-1.84-6.26.06-12.53,0-18.79,0-1.32,0-2.1-.35-2.09-1.93s.66-1.91,2.06-1.9c6.47,0,12.94,0,19.4,0a12.84,12.84,0,0,0,1.39,0c.55,0,2.06-2.19,1.85-2.73-.34-.86-1.16-.4-1.74-.41q-10.47,0-21,0c-1.44,0-2-.47-2-2s.75-1.91,2.1-1.9c8.27,0,16.53,0,24.8,0a5.74,5.74,0,0,0,3.2-.82,10.29,10.29,0,0,1,5.38-1.67c1.5,0,1.9-.49,1.89-2-.06-9,0-18,0-27,0-2.36-.31-2.67-2.65-2.67q-17.72,0-35.43,0c-2.31,0-2.7.37-2.7,2.66Q6.72,22.27,6.73,33.74ZM36.5,53.68A10.6,10.6,0,1,0,47.06,43,10.62,10.62,0,0,0,36.5,53.68Z"/><path d="M27.25,35.35c5,0,10,0,14.94,0,1.37,0,2.12.33,2.11,1.88s-.74,1.95-2.1,1.95c-10,0-19.92,0-29.87,0-1.92,0-2.76-1.31-2-3.07.37-.87,1.16-.72,1.85-.72Z"/><path d="M14.85,28.1v-2c0-2.47-.06-2.53-2.61-2.56s-2.63,0-1.6-2.41C12,18.07,13.27,15,14.62,12c.21-.47.32-1.25,1.08-1.07s.53.9.54,1.43c0,1.79,0,3.59,0,5.38,0,1.13.49,1.6,1.56,1.6l.77,0c3.06,0,3-.17,1.8,2.64q-1.93,4.7-3.91,9.37c-.2.47-.27,1.25-1,1.11s-.5-.91-.52-1.42c0-1,0-1.95,0-2.92Z"/><path d="M33.71,21.48c2.92,0,5.85,0,8.77,0,1.23,0,1.79.47,1.81,1.72s-.33,2.1-1.78,2.1H24.65c-1.35,0-1.75-.76-1.73-2s.53-1.86,1.86-1.84C27.76,21.52,30.73,21.48,33.71,21.48Z"/><path d="M33.42,32.16c-2.87,0-5.74,0-8.61,0-1.31,0-1.87-.53-1.89-1.82s.44-2,1.85-2q8.85,0,17.7,0c1.44,0,1.83.78,1.81,2.07s-.66,1.79-1.93,1.77C39.38,32.13,36.4,32.16,33.42,32.16Z"/><path d="M36.17,18.29c-2.05,0-4.1,0-6.15,0-1.32,0-1.84-.58-1.87-1.85s.52-2,1.9-2c4.1,0,8.21,0,12.31,0,1.35,0,1.93.58,1.93,2s-.6,1.92-2,1.88C40.28,18.25,38.23,18.29,36.17,18.29Z"/><path d="M43.47,60.88l-4.87-5a2,2,0,0,1,0-2.83h0a2,2,0,0,1,2.83,0l1.7,1.73a2,2,0,0,0,3-.15l5.41-6.83a2,2,0,0,1,2.82-.33h0a2,2,0,0,1,.32,2.82L46.47,60.73A2,2,0,0,1,43.47,60.88Z"/></svg>