<svg id="Layer_1" data-name="Layer 1" xmlns="http://www.w3.org/2000/svg" viewBox="0 0 64 72"><path d="M54.57,52.65c2.26,3,2.25,3.28-.19,6.35-.73.91-1.45,1.65-1.23,3.19.25,1.86-2.3,2.91-4.69,1.8l-3.54,3.54a1.16,1.16,0,0,1-1.64,0,1.15,1.15,0,0,1,0-1.63l3.6-3.6-3.11-2.94-4.21,3.07a1.16,1.16,0,0,1-1.36-1.87L42,57.81c-1.7-3.1-.76-4.52,2.74-4.88.75-.08,1.46-.86,2.13-1.39C50,49,50,49,53.18,51.26c9.9-10.52,8.43-28.89-3.11-38.81a27.75,27.75,0,0,0-39.9,3.9C.78,28.37,2.8,46.55,14.66,55l3.59-4.74,5.57,12.62L10.07,61.39l3.48-4.86C6,50,2.1,41.74,2.67,31.67A28.31,28.31,0,0,1,11,12.91,29.54,29.54,0,0,1,50.09,10.3C61.39,19,66.47,37.56,54.57,52.65Z"/><path d="M23.55,35.6c3.5-7.5,6.86-14.67,10.48-22.44.07,1.1.15,1.61.12,2.11-.24,4.51-.43,9-.79,13.54-.14,1.76.22,2.59,2.17,2.4,1.51-.14,3,0,4.89,0L30.17,53.09,29.73,53q.35-6.68.7-13.36a9.78,9.78,0,0,1,.14-1.53c.45-2.08-.44-2.74-2.44-2.53C26.76,35.72,25.36,35.6,23.55,35.6Z"/><path d="M46.8,19.94l3.53-3.38,2.76,3.49-4.22,2.48Z"/><path d="M56.29,28l.61,4.37H52.1l-.53-3.18Z"/><path d="M51.08,27.25l-1.26-3L54,21.79,55.81,26Z"/><path d="M45.29,12.3l3.4,2.6-3.61,3.36-2.24-1.73Z"/></svg>