<svg id="Layer_1" data-name="Layer 1" xmlns="http://www.w3.org/2000/svg" viewBox="0 0 64 72"><defs><style>.cls-1{fill:#fff;}</style></defs><path d="M27.81,59.88c-.43-1.29-.89-2.57-1.3-3.87s-.85-2.93-1.28-4.39c-.32-1.08.15-2.09.34-3.1.26-1.3.63-2.57,1-3.84a2,2,0,0,0-.4-1.68,3.72,3.72,0,0,1-.66-3.25,3.89,3.89,0,0,1,.44-.83c.41-.61.68-.63,1.32-.26,1,.58.91,1,2.2-.07a.71.71,0,0,1,1.07.09,3,3,0,0,1,.23,3.89,2.94,2.94,0,0,0-.44,2.76,51.75,51.75,0,0,1,1.2,5.1,2.82,2.82,0,0,1-.11,1.32c-.82,2.7-1.69,5.39-2.54,8.09,0,.06,0,.13.13.24L30.86,56a2.8,2.8,0,0,1,.27.73,14.88,14.88,0,0,0,1.67,6.19c.44.84.33,1-.62,1h-27a1.6,1.6,0,0,1-1.74-1.76c.12-3.06.26-6.11.42-9.17.09-1.81.19-3.63.39-5.43a4,4,0,0,1,2.72-3.32c2.7-1.16,5.38-2.38,8.07-3.56a14.4,14.4,0,0,0,2-.87,16,16,0,0,0,1.91-1.58c.49-.44.91-1,1.41-1.37a.92.92,0,0,1,.77-.18c.17.05.31.43.32.67A42.9,42.9,0,0,0,23.45,48.2c.87,3,2,6,3,9.06.32.92.8,1.79,1.21,2.69Z"/><path d="M62.17,55.8a10.22,10.22,0,0,1-1.09,6A18.36,18.36,0,0,1,59,65.13a15.07,15.07,0,0,1-21,2,14.33,14.33,0,0,1-5.38-9.33A14.13,14.13,0,0,1,35.35,47a14.44,14.44,0,0,1,9.22-5.81A14.78,14.78,0,0,1,55.14,43a15.09,15.09,0,0,1,6.37,7.5A11.78,11.78,0,0,1,62.17,55.8ZM46.82,58.72l-.38-1.59a1.1,1.1,0,0,1-1.39-.32c-.55-.63.12-1,.08-1.48l-1.31-.8c-.33.43-.5.87-1.24.78s-.62-.75-.92-1.13a7.38,7.38,0,0,0-1.17.27c-.15.06-.36.38-.32.48.27.63-.27.76-.56,1.06s-.55.17-.84,0a3.25,3.25,0,0,0-.52-.22,5.76,5.76,0,0,1-.34.61c-.34.45-.58.83.13,1.21.37.21.1,1.36-.32,1.44-.62.12-.71.42-.49.95a4.59,4.59,0,0,1,.21.83,2.36,2.36,0,0,1,.27,0c.3,0,.76,0,.86.13.23.36.87.71.3,1.31a.57.57,0,0,0,.09.54,8.44,8.44,0,0,0,1.11.63,1.08,1.08,0,0,1,1.25-.68c.69.11.7.62.92,1.09l1.52-.36c0-.13,0-.17,0-.21,0-.32-.39-.69.12-.95s.78-.82,1.37-.24c.07.06.38,0,.49-.12a7.19,7.19,0,0,0,.41-.61c.28-.33.26-.52-.12-.8a1.39,1.39,0,0,1-.33-.86C45.62,58.93,46.3,58.93,46.82,58.72Zm9.47,3.46a1.76,1.76,0,0,1-.15-.32c0-.21-.18-.53-.09-.62.26-.27.29-.89.91-.71s.61-.32.72-.69.14-.66-.37-.8-.68-1.15-.21-1.4.38-.56.14-.91-.28-.44-.41-.66c-.88.4-.85.37-1.5-.06s.05-.76-.08-1.13l-1.35-.33c-.29.37-.23.91-.91,1s-.83-.36-1.12-.75l-1.25.78.44.79c-.5.7-.51.65-1.38.82-.2,0-.38.52-.46.83a.67.67,0,0,0,.24.56c.24.17.49.19.58.61.15.64-.13.95-.67,1.24l.71,1.21c1.2-.5,1.77-.07,1.65,1.22l1.32.31c.33-.78.35-.72.82-.88a.76.76,0,0,1,1,.45c0,.07.33.08.45,0A10.55,10.55,0,0,0,56.29,62.18Zm-10.2-8.37-.32.71L47,55c.6-1,1.11-.94,1.83,0l.51-.15.54-.22a.47.47,0,0,0,0-.15c-.22-.9.14-1.29,1.06-1.16a.5.5,0,0,0,.4-.21,6.12,6.12,0,0,0,.32-.88,1.68,1.68,0,0,1-.31-.19c-.14-.17-.35-.36-.34-.53s.13-.71.31-.78c.69-.25.19-.63.15-.93s-.25-.47-.64-.35a1,1,0,0,1-.62-.16c-.57-.29-.33-.77-.17-1.24l-1.13-.44c-.59,1-1.12,1-1.86,0L46,48c.38,1-.07,1.44-1.29,1.28-.08.16-.19.33-.27.52s-.12.37-.18.54c.93.63.91,1.26-.05,1.81a6.5,6.5,0,0,0,.3.8c.06.11.26.28.32.25C45.45,52.88,45.67,53.48,46.09,53.81Z"/><path d="M40.27,17.88a14,14,0,0,1-.36,6.88,7.12,7.12,0,0,1-1.29,1.85c-.18.26-.45.51-.49.79a9.88,9.88,0,0,1-2.88,5.72,9.48,9.48,0,0,1-5.09,3.06,8.47,8.47,0,0,1-6.9-1.44,11.19,11.19,0,0,1-4.1-5.05c-.28-.76-.37-1.57-.6-2.35a1.53,1.53,0,0,0-.48-.72,3.93,3.93,0,0,1-1.42-2.45,12.9,12.9,0,0,1-.18-6.3c-1.07-.29-1.34-1.09-1.27-2.11,0-.45,0-.91,0-1.36a1.5,1.5,0,0,1,1-1.6,1.56,1.56,0,0,0,.62-1.09A11.48,11.48,0,0,1,19.9,5.13a12,12,0,0,1,1.5-1.34c.57-.44.94-.29,1.09.42.33,1.55.63,3.12,1,4.67.26,1.21.54,2.41.81,3.61a3.56,3.56,0,0,0,.17.41l.19,0c-.09-1-.15-2-.28-3q-.4-3.21-.86-6.4a1.07,1.07,0,0,1,.8-1.24,11.73,11.73,0,0,1,8,0,1.15,1.15,0,0,1,.88,1.38c-.26,1.91-.52,3.82-.76,5.74-.15,1.23-.28,2.47-.42,3.7l.25.05c.16-.59.36-1.17.48-1.76.49-2.33,1-4.66,1.42-7,.16-.8.56-1,1.15-.53a11.71,11.71,0,0,1,4.42,6.87,7.28,7.28,0,0,1,.19,1.12A1.36,1.36,0,0,0,40.82,13a1.55,1.55,0,0,1,.62,1.08,15.16,15.16,0,0,1,0,2.43A1.52,1.52,0,0,1,40.27,17.88ZM18.84,19a11.91,11.91,0,0,0,.57,5.3.74.74,0,0,0,.44.37A1.55,1.55,0,0,1,21,26.19a8.55,8.55,0,0,0,3.48,6.33,6.64,6.64,0,0,0,7.71,0,8.56,8.56,0,0,0,3.47-6.19,1.72,1.72,0,0,1,1.11-1.67,1.15,1.15,0,0,0,.64-.74,29.5,29.5,0,0,0,.51-3.24,13.68,13.68,0,0,0-.06-2,7,7,0,0,1-.66.39,19.44,19.44,0,0,1-2.81,1.05,33.84,33.84,0,0,1-8.17.42,19.94,19.94,0,0,1-3.54-.35C21.42,19.92,20.2,19.42,18.84,19Z"/><path d="M33.91,46.2a4.71,4.71,0,0,1,.05-.54c.47-2.51.94-5,1.4-7.52.06-.3,0-.63,0-.94s.16-.51.33-.58a.76.76,0,0,1,.64.18c.72.64,1.37,1.36,2.11,2A17.47,17.47,0,0,0,40.3,40c.28.18.57.33,1.07.61a17.85,17.85,0,0,0-7.26,5.69Z"/><path class="cls-1" d="M51.63,58.82a1.83,1.83,0,1,0,3.66,0A1.79,1.79,0,0,0,53.48,57,1.82,1.82,0,0,0,51.63,58.82Z"/><path d="M39.44,59a2.51,2.51,0,1,1,2.49,2.47A2.54,2.54,0,0,1,39.44,59Z"/><path d="M51.63,58.82A1.82,1.82,0,0,1,53.48,57a1.79,1.79,0,0,1,1.81,1.84,1.83,1.83,0,1,1-3.66,0Z"/><path d="M49.91,51.35a1.94,1.94,0,0,1-2.06,1.92,2,2,0,0,1,.11-4A2,2,0,0,1,49.91,51.35Z"/></svg>