<svg id="Layer_1" data-name="Layer 1" xmlns="http://www.w3.org/2000/svg" viewBox="0 0 64 72"><path d="M8.78,36.66c-2.18,0-4.27,0-6.35,0A2.89,2.89,0,0,1,1,36.26a1.86,1.86,0,0,1-.43-2.81,5,5,0,0,1,.78-.74Q15.78,21.07,30.19,9.44a2.07,2.07,0,0,1,3.07,0l8.82,7.12.73.56c0-.49,0-.86,0-1.24a2,2,0,0,1,2-2c1.94,0,3.87,0,5.8,0a2,2,0,0,1,2,2.07c0,2.83,0,5.67,0,8.5a1.14,1.14,0,0,0,.5,1q4.8,3.64,9.58,7.34a3.16,3.16,0,0,1,1,1.1,2,2,0,0,1-1.89,2.74c-1.91,0-3.82,0-5.73,0h-.82V60.77c0,1.75-.71,2.46-2.45,2.46H11.23c-1.74,0-2.45-.71-2.45-2.46V36.66Zm47-4,0-.17c-2-1.52-3.94-3.06-5.94-4.55a2.71,2.71,0,0,1-1.19-2.41c0-2.32,0-4.63,0-6.95,0-.24,0-.47,0-.7H46.79v2.2c0,.33,0,.67,0,1a2,2,0,0,1-3.47,1.57L37,17.55l-5.26-4.24L7.92,32.53a12.75,12.75,0,0,0,2.35.15c1.75,0,2.45.71,2.45,2.45V59.2H51.29V35a2,2,0,0,1,2.3-2.33Z"/><path d="M35.34,37.89c1.56,0,3,0,4.52,0a1.47,1.47,0,0,1,1.53.75,1.45,1.45,0,0,1-.3,1.61Q36.17,47,31.26,53.77c-.53.73-1,.94-1.64.75s-.95-.69-.95-1.6c0-2.45,0-4.9,0-7.34v-.84H23.93A1.37,1.37,0,0,1,22.61,44a1.35,1.35,0,0,1,.19-1.46L32.87,28.68a1.32,1.32,0,0,1,1.52-.58,1.37,1.37,0,0,1,1,1.47v8.32Zm2.28,2.65H34.33c-1.16,0-1.64-.49-1.64-1.65V34.11c0-.16,0-.31-.07-.6l-6.23,8.57h3.46a1.35,1.35,0,0,1,1.46,1.48c0,.72,0,1.43,0,2.15V49l.14,0Z"/></svg>