<svg id="Layer_1" data-name="Layer 1" xmlns="http://www.w3.org/2000/svg" viewBox="0 0 64 72"><defs><style>.cls-1{fill:#fff;}</style></defs><path d="M21,11.27c0,.91,0,1.66,0,2.41a2.4,2.4,0,0,0,2.5,2.54q8.39.08,16.78,0c1.71,0,2.53-1,2.58-2.74,0-.66,0-1.32,0-2.41,2.47.23,4.93.12,7.18.76a5.71,5.71,0,0,1,4.18,5.83q.07,21.9,0,43.82a6.41,6.41,0,0,1-6.43,6.31q-15.8.09-31.58,0a6.46,6.46,0,0,1-6.44-6.6q0-21.62,0-43.25a6.43,6.43,0,0,1,5.57-6.53,30.87,30.87,0,0,1,4-.14C19.81,11.26,20.32,11.27,21,11.27Zm8.25,21.44c0,2.24,0,4.31,0,6.38,0,.36.33.71.51,1.07.3-.18.7-.29.89-.55q3.41-4.65,6.74-9.33c.62-.87.28-1.31-.71-1.35-.65,0-1.3,0-2.1,0,0-2.37,0-4.58,0-6.8,0-.31-.29-.62-.45-.93-.31.16-.73.25-.9.51q-3.36,4.84-6.65,9.73c-.58.85-.16,1.22.71,1.26C27.87,32.73,28.48,32.71,29.23,32.71Zm2.88,13H17.88a3.25,3.25,0,0,0-1,0,2.51,2.51,0,0,0-.71.57,3.23,3.23,0,0,0,.72.71,2.12,2.12,0,0,0,.84,0h28.6a2.88,2.88,0,0,0,1-.07.84.84,0,0,0,.48-.6.83.83,0,0,0-.48-.6,4.22,4.22,0,0,0-1.13-.08Zm0,7.36H17.84a4.23,4.23,0,0,0-1.13,0,.61.61,0,0,0,0,1.18,2.45,2.45,0,0,0,1,.1q14.37,0,28.73,0c.48,0,1-.45,1.45-.7a4.48,4.48,0,0,0-1.4-.58C41.64,53.05,36.85,53.06,32.06,53.06Zm-7.74,7.37c-2.36,0-4.72,0-7.08,0-.36,0-.71.4-1.06.61.36.21.71.6,1.07.61q6.88.06,13.75,0c.38,0,.75-.36,1.13-.55-.38-.23-.76-.66-1.15-.67C28.77,60.4,26.55,60.43,24.32,60.43Z"/><path d="M31.87,15.23c-2.66,0-5.31,0-8,0-1.14,0-1.67-.45-1.65-1.6s0-2.47,0-3.7a1.31,1.31,0,0,1,1.45-1.51,6.17,6.17,0,0,1,.86,0c1.69.15,3,0,3.7-2.06.53-1.64,2.19-2.32,3.95-2.2a3.86,3.86,0,0,1,3.66,2.71c.43,1.34,1.19,1.58,2.43,1.56,3.33,0,3.33,0,3.33,3.35s0,3.44-3.37,3.44Zm1.89-6.49C33,8.14,32.48,7.49,32,7.52s-.9.69-1.35,1.07c.42.47.79,1.19,1.3,1.32S32.93,9.32,33.76,8.74Z"/><path class="cls-1" d="M33.28,24.4,33,24.32l-4.76,7c2.34.22,2.34.22,2.34,2.42v3.33l.27.09,4.86-6.75c-2.42-.28-2.42-.28-2.42-2.63Z"/><path d="M33.28,24.4v3.36c0,2.35,0,2.35,2.42,2.63l-4.86,6.75-.27-.09V33.72c0-2.2,0-2.2-2.34-2.42l4.76-7Z"/></svg>