<svg id="Layer_1" data-name="Layer 1" xmlns="http://www.w3.org/2000/svg" viewBox="0 0 64 72"><path d="M54.73,36q0,11.24,0,22.48c0,3.28-1.34,5.1-4.46,6.18a54,54,0,0,1-36.36,0c-3.45-1.2-4.64-2.87-4.64-6.51q0-22.24,0-44.5c0-3.54,1.23-5.26,4.55-6.42a53.75,53.75,0,0,1,36.51,0c3.24,1.14,4.39,2.82,4.39,6.21Q54.75,24.78,54.73,36Zm-22.82-2c5.13,0,10.26,0,15.39,0,2,0,2.76-.72,2.77-2.71,0-5.78,0-11.56,0-17.35a2.08,2.08,0,0,0-1.65-2.29,49.49,49.49,0,0,0-32.85,0,2.18,2.18,0,0,0-1.68,2.43c0,5.63,0,11.26,0,16.9,0,2.4.65,3,3,3C22,34.09,26.93,34.08,31.91,34.08ZM23.17,59.77c.91,0,1.82,0,2.72,0,.42,0,1,.14,1-.57s-.65-.5-1.06-.51c-1.11,0-2.22,0-3.32,0-2.68,0-2.68,0-3.31-2.58l-.15-.58c-.25-1.11-.12-1.92,1.32-1.84.43,0,1,0,1-.58s-.58-.5-.95-.49c-1.48.07-1.7-.75-1.42-1.93.13-.54.28-1.07.45-1.6.6-1.85.61-1.84,2.39-1.16.33.12.68.33,1,0s0-.63-.29-.87c-1.6-1.46-1.6-1.46-.09-3,.32-.33.68-.6,1-.93.9-.93,1.67-1,2.31.28.17.35.42.81.9.56s.28-.83,0-1.16c-1-1.28-.21-1.75.93-2.06.72-.2,1.45-.4,2.18-.57,1.07-.25,1.8-.07,1.68,1.29,0,.41-.1,1,.57,1s.52-.58.48-1c-.15-1.36.6-1.53,1.66-1.32.64.14,1.28.28,1.9.47,1.16.36,2.35.73,1.24,2.34a.61.61,0,0,0,.11.94c.41.23.68-.12.82-.43.72-1.61,1.58-1.14,2.49-.2.38.4.79.77,1.17,1.17.89.92,1.39,1.8-.24,2.5-.38.16-.7.51-.39,1s.67.18.94,0c1.38-1,2-.29,2.27,1,.17.68.37,1.36.52,2,.25,1.09,0,1.79-1.32,1.7-.4,0-1.05-.14-1.07.5s.62.6,1,.55c1.49-.16,1.55.7,1.34,1.77-.12.59-.32,1.17-.45,1.76a1.74,1.74,0,0,1-2.05,1.51c-1.4-.08-2.81,0-4.22,0-.38,0-.93-.07-1,.47s.56.62,1,.62c1.56,0,3.13-.06,4.68,0A2.23,2.23,0,0,0,45.52,58,13.7,13.7,0,0,0,44,45.47a14.15,14.15,0,0,0-18.12-5.34,14.32,14.32,0,0,0-7.74,16.74c.74,2.82.85,2.9,3.79,2.9ZM35.06,56.6a3.45,3.45,0,0,0-.37,2.16,2.7,2.7,0,0,1-4.88,2c-.9-1.21-.56-2.37.3-3.44.34-.43.75-.8,1.09-1.24.17-.22.39-.55.18-.82s-.64-.13-1,0A4.34,4.34,0,0,0,28,57.88a4.17,4.17,0,0,0,2,4.87,4.09,4.09,0,0,0,5.16-1A3.7,3.7,0,0,0,35.06,56.6Zm.7-7.38-.24-.08C34.75,50.77,34,52.41,33.2,54c-.67,1.32-1,2.84-2.3,3.82a1.83,1.83,0,0,0,1.83,3.1,1.68,1.68,0,0,0,1.14-2A4.67,4.67,0,0,1,34,56.67C34.59,54.19,35.17,51.7,35.76,49.22Z"/><path d="M28,25.68l.86-1.39c1.06-1.71,1-1.78-.72-2.9S26.27,20.24,28,19c2.23-1.56,4.45-3.13,6.7-4.68.34-.24.75-.73,1.2-.28s0,.85-.23,1.22c-.76,1.26-1.53,2.51-2.34,3.73a1.1,1.1,0,0,0,.4,1.78l.53.34c2.13,1.31,2.13,1.15.12,2.62-2.24,1.62-4.48,3.24-6.73,4.84-.35.25-.74.76-1.2.33s0-.85.24-1.21c.39-.7.83-1.36,1.24-2Z"/></svg>