<svg id="Layer_1" data-name="Layer 1" xmlns="http://www.w3.org/2000/svg" viewBox="0 0 64 72"><path d="M31.38,66.38l-.05.13q-11.59,0-23.18,0c-.59,0-.6-.27-.6-.71q0-10.58,0-21.15c0-.15,0-.3,0-.46.58.55.66,1.35,1.09,2l.09.17a.1.1,0,0,0,0,.09.48.48,0,0,0,.22.41H9a1.67,1.67,0,0,0,.28.72,4.7,4.7,0,0,1,.59,2.56c0,4.45,0,8.91,0,13.37,0,.57.2.67.71.67,5,0,10,0,15.07,0,1.7,0,3.4,0,5.09,0,.54,0,.68.17.64.67S31.37,65.86,31.38,66.38Z"/><path d="M59.14,27.75A4.48,4.48,0,0,1,61,31.87q0,17,0,33.9c0,.24,0,.48,0,.72l-11.16,0c-5.3,0-10.61,0-15.91,0-.59,0-.77-.14-.77-.75q0-17.28,0-34.57a5.76,5.76,0,0,1,.68-2.68l1-.9a6.1,6.1,0,0,1,2.56-.54h.52a1.55,1.55,0,0,0,.77.07c3,0,5.94,0,8.92,0,2.6,0,5.2.06,7.81,0A7,7,0,0,1,59.14,27.75Zm0,36.55a10.06,10.06,0,0,0,0-1.82,19.09,19.09,0,0,0,0-2.62,18.8,18.8,0,0,0,0-2.6,19.24,19.24,0,0,0,0-2.63,18.8,18.8,0,0,0,0-2.6,19.09,19.09,0,0,0,0-2.62,18.8,18.8,0,0,0,0-2.6,19.09,19.09,0,0,0,0-2.62,18.8,18.8,0,0,0,0-2.6,19.09,19.09,0,0,0,0-2.62,18.8,18.8,0,0,0,0-2.6,19.24,19.24,0,0,0,0-2.63,7.49,7.49,0,0,0,0-1.57.08.08,0,0,0,0-.11v-.68c0-1-.21-1.51-1-1.8a3.27,3.27,0,0,0-2.6-.44,13.49,13.49,0,0,0-2.62,0,14.11,14.11,0,0,0-2.6,0,14.44,14.44,0,0,0-2.63,0,14,14,0,0,0-2.59,0,14.44,14.44,0,0,0-2.63,0,14.11,14.11,0,0,0-2.6,0,14.33,14.33,0,0,0-2.62,0c-1-.1-2,.26-2.12,1.31a1,1,0,0,0-.1.63q0,15.75,0,31.49c0,.65-.34,1.55.18,1.9s1.34.12,2,0a18.94,18.94,0,0,0,2.61,0,17.63,17.63,0,0,0,2.62,0,18.8,18.8,0,0,0,2.6,0,17.63,17.63,0,0,0,2.62,0,18.94,18.94,0,0,0,2.61,0,17.63,17.63,0,0,0,2.62,0,18.8,18.8,0,0,0,2.6,0,17.63,17.63,0,0,0,2.62,0,2,2,0,0,0,.78,0C59.07,64.56,59.14,64.48,59.09,64.3Z"/><path d="M7.57,10.91q13.32,0,26.63,0a1.09,1.09,0,0,1,.84.4c1.1,1.15,2.19,2.29,3.3,3.41,1.74,1.76,3.5,3.52,5.25,5.27a2.39,2.39,0,0,1,.54.72,22.73,22.73,0,0,0,0,2.61c0,.46,0,.91,0,1.37s-.14.48-.5.47c-.56,0-1.13,0-1.69,0,0-.05-.1-.09-.12-.15-.11-.34.17-.83-.18-1a2.72,2.72,0,0,0-1.15-.06c-.22,0-.43,0-.65,0-2.29,0-4.59,0-6.89,0-.52,0-.77-.13-.78-.65a12.65,12.65,0,0,0,0-2.61,12.08,12.08,0,0,0,0-2.62,12.55,12.55,0,0,0,0-2.6,11.25,11.25,0,0,0,.07-1.42c.07-.61-.12-.82-.77-.81-6.95,0-13.9,0-20.85,0-.22,0-.48-.12-.66.12a9.73,9.73,0,0,0,0,2.09c0,.5,0,1,0,1.49s-.13.49-.5.48c-.56,0-1.12,0-1.69,0l-.16-.16V11A.28.28,0,0,0,7.57,10.91Zm27,3.49a2.53,2.53,0,0,0,0,1.06,11,11,0,0,0,0,2.63,14.93,14.93,0,0,0,0,2.59c-.14.89-.14.88.71.88l4.24,0h2.31a7.37,7.37,0,0,0-1.22-1.26,1.71,1.71,0,0,0-.53-.54,22.54,22.54,0,0,0-1.94-2,4.41,4.41,0,0,0-.92-.91,10.18,10.18,0,0,0-1.42-1.44,3.92,3.92,0,0,0-1.2-1.13l-.06,0Z"/><path d="M11.12,45.56a5.45,5.45,0,0,0-.63-1.39c-.25-.56-.47-1.12-.74-1.67a41.23,41.23,0,0,0-1.91-3.82,10.32,10.32,0,0,0-1-2.32,9.2,9.2,0,0,0-.9-1.87,1.54,1.54,0,0,0-.32-.74,23.34,23.34,0,0,0-1.26-2.62,12.15,12.15,0,0,0-1-2.12c-.34-1.1-1.06-2-1.48-3.1a8.52,8.52,0,0,0-.8-1.8.52.52,0,0,1,.19-.79,14.9,14.9,0,0,0,1.93-.93l.16-.1h0c1.82-.82,3.61-1.67,5.36-2.62.47.18.39.74.71,1,.74,1.78,1.57,3.51,2.46,5.22A19.08,19.08,0,0,0,13,28.4l.09.14h0a4.29,4.29,0,0,0,.64,1.35,4.66,4.66,0,0,0,.57,1.24,2.93,2.93,0,0,0,.51,1.05l.11.2,0,0,0,0a.89.89,0,0,0,.26.53h0a1.68,1.68,0,0,0,.39.79h0a12.67,12.67,0,0,0,1.09,2.33.25.25,0,0,0,.12.26,18.84,18.84,0,0,0,1.17,2.49L18,39h0a9.13,9.13,0,0,0,.92,2,1.33,1.33,0,0,0,.28.6,23.16,23.16,0,0,0,1.3,2.76,14,14,0,0,0,1.18,2.47,5.28,5.28,0,0,1,.68,2.6l0,2.62a16.11,16.11,0,0,0,0,2.6,12.07,12.07,0,0,0,0,2.62v1s0,0,0,0a.25.25,0,0,0,0,.11c-.1.4.1.84-.14,1.23l-.54-.45c-1.39-1.33-2.77-2.67-4.17-4C15.8,53.51,13.81,52,13,49.45a.1.1,0,0,0,0,0,24.69,24.69,0,0,0-1.23-2.6A4.18,4.18,0,0,0,11.12,45.56Zm9.49,3.84a.79.79,0,0,0-.22.54c-.37.75-.37.75-1.17.38a6.27,6.27,0,0,0-1.28-.74.56.56,0,0,0-.08.21c-.05.36-.08.73-.12,1.09-.1,1-.1,1-1,.67a1.09,1.09,0,0,0-.25,0,5.93,5.93,0,0,0-1.81-.7c.85,1.61,2.36,2.61,3.61,3.84l1.06,1.06c.1.1.21.24.39.15L21.39,55c.17-.08.15-.25.15-.4L21.48,52a14.94,14.94,0,0,0,0-2.59,1.74,1.74,0,0,0-.31-1.61,5.55,5.55,0,0,0-.53,1.58ZM3.81,26c.36.93.37.94,1.24.5.19-.1.37-.22.55-.33a1.21,1.21,0,0,0,.57-.27,15.48,15.48,0,0,0,2.32-1.12c.24-.18.87,0,.6-.66s-.61-1.29-.91-1.94c-.11-.23-.23-.27-.46-.16L3.34,24.2c-.23.11-.35.22-.2.49C3.38,25.13,3.59,25.58,3.81,26Z"/><path d="M37.09,33.75c.09-1.32.09-1.32,1.43-1.32,5.89,0,11.78,0,17.67,0,.61,0,.77.16.76.76,0,2.15,0,4.3,0,6.45-.46.26-1,0-1.46.14H39.82l-2.61,0c-.17-.24-.05-.52-.12-.77V33.75Zm13.18,4.17,1.16,0c.36,0,.43-.16.43-.47s-.17-.39-.44-.38h-1a.11.11,0,0,0,0-.07c.28-.18.56-.34.82-.53A1.16,1.16,0,0,0,51.72,35c-.27-.64-.82-.71-1.41-.68a1.22,1.22,0,0,0-1.22,1c0,.17-.14.43.13.5s.48.13.66-.09a2.21,2.21,0,0,0,.16-.35.42.42,0,0,1,.63-.14.38.38,0,0,1,0,.62,4,4,0,0,1-.56.44,2.32,2.32,0,0,0-.8.65c-.2.26-.45.57-.29.88s.47.09.72.11A2.27,2.27,0,0,0,50.27,37.92Zm-4.05-2.09c.21.17.57-.07.71.28s0,1,0,1.43.2.46.53.46.52,0,.51-.45c0-.92,0-1.83,0-2.74,0-.18.08-.43-.25-.4s-.53-.11-.62.17-.51.48-.82.63c-.08,0-.09,0-.07.1v.4C46.11,35.79,46.13,35.83,46.22,35.83Zm6.48.78c-.48,0-.56.09-.46.49a1.45,1.45,0,0,0,1.55.93c.64,0,1.32-.47,1.25-1a9.67,9.67,0,0,1-.14-2c0-.11-.14-.27-.24-.37a1.61,1.61,0,0,0-2.13.18c-.15.19-.33.45-.15.64s.52.14.78,0c.07,0,.09-.14.16-.2a.52.52,0,0,1,.55-.08.24.24,0,0,1,.18.3c0,.22-.23.24-.4.25s-.29.15-.28.35,0,.33.29.34a.36.36,0,0,1,.39.41.26.26,0,0,1-.22.28c-.25.06-.51.09-.62-.19S52.93,36.56,52.7,36.61Z"/><path d="M37.1,44.2c0-.57.08-1.13.11-1.7l.26,0c.18,0,.35,0,.52,0,2.43,0,4.87,0,7.3,0,.51,0,.71.13.66.65s0,.87,0,1.3v.27l0,.25-.24,0h-8.5l-.08-.54Z"/><path d="M37.08,59.86a14.3,14.3,0,0,1,.13-2.07l2.61,0c.87.07.86.07.87.94,0,.38,0,.77,0,1.15a5.33,5.33,0,0,0,0,.89c.12.71-.16,1-.87.93l-2.6,0C37,61.07,37.2,60.45,37.08,59.86Z"/><path d="M37.21,49.41l0-1.67c0-.23-.07-.48.21-.62h.3l0,0,.05,0a8,8,0,0,0,2,0,.74.74,0,0,0,.25,0c.61-.1.76.18.73.75a4.91,4.91,0,0,0,.05,1.53,5.7,5.7,0,0,0,0,1.43l-.09.11-.89,0-2.58-.06Z"/><path d="M37.21,54.64c.17-.71,0-1.44.11-2.15a18.82,18.82,0,0,0,2.49-.05,1.2,1.2,0,0,0,.32.06c.58-.08.68.22.66.72a4.52,4.52,0,0,0,.05,1.42,1.38,1.38,0,0,0,0,.78.62.62,0,0,0,0,.53l-.22.37-.83-.06a15.65,15.65,0,0,1-2.56-.08Z"/><path d="M50.27,61.68l-1.88,0c-.36,0-.51-.12-.5-.5s0-.86,0-1.29v-.92L48,57.79l2.29,0a1.71,1.71,0,0,0,.39,0c.61-.1.83.13.79.77-.06,1,0,2,0,3C51,61.61,50.63,61.46,50.27,61.68Z"/><path d="M42.32,59.86a15.71,15.71,0,0,1,.11-2.06l2.62,0c.87.06.87.06.87,1l0,1.09c0,.28,0,.56,0,.83,0,.91,0,.91-.88,1l-2.6,0C42.23,61.07,42.44,60.45,42.32,59.86Z"/><path d="M55.5,57.77c1.34.1,1.34.1,1.34,1.45,0,.22,0,.43,0,.65a5.91,5.91,0,0,0,0,1c.07.59-.17.79-.72.74a4.82,4.82,0,0,0-.65,0,8.33,8.33,0,0,0-1.73-.06c-.34,0-.46-.13-.45-.46s0-.86,0-1.3,0-1.07,0-1.61c0-.33.11-.46.45-.45C54.33,57.81,54.92,57.78,55.5,57.77Z"/><path d="M55.38,47.11a1.62,1.62,0,0,0,.19,0c1.38.07,1.38.07,1.38,1.48,0,.78,0,1.56-.05,2.34l-1.41,0L55,51c-.5,0-1.12.16-1.46-.07s-.06-1-.19-1.47a11.66,11.66,0,0,1,.15-2.29h.06l0,0A7.15,7.15,0,0,0,55.38,47.11Z"/><path d="M56.87,54.64a7.1,7.1,0,0,0,0,1c0,.53-.16.7-.66.64a4.24,4.24,0,0,0-.71,0,1.59,1.59,0,0,0-.75-.06c-1.34,0-1.34,0-1.4-1.32a1.55,1.55,0,0,0-.06-.31c0-.52,0-1,0-1.55s.11-.62.58-.6a5.8,5.8,0,0,0,1.61-.05l.06,0c.4.17,1-.23,1.23.24A3.19,3.19,0,0,1,56.84,54Z"/><path d="M57,44.85l-.18.16-7.68,0c-.92,0-.92,0-1-.92l0-1.54,8.18,0c.47,0,.59.16.58.6S57,44.27,57,44.85Z"/><path d="M43.33,47.11a8.88,8.88,0,0,0,1.71,0c1,.06,1,.06,1,1.06a3.9,3.9,0,0,0,.06,1.23,1.87,1.87,0,0,0,0,.94l0,0,0,0c0,.76-.64.44-1,.55l-2.59-.07,0-1.5a6.42,6.42,0,0,0,.06-1.75c0-.35.11-.53.46-.54l.27,0,.05,0Z"/><path d="M46,56.28c-.95,0-1.91,0-2.86,0-.44,0-.64-.1-.62-.58a29.23,29.23,0,0,1,.11-3.24,10.4,10.4,0,0,0,2.43,0c1,.16,1,.16,1,1.2a7,7,0,0,0,.06,1.65Z"/><path d="M51.44,50.85c-.32.23-.7,0-1,.14-.65,0-1.29-.05-1.94,0-.47,0-.6-.15-.57-.59a6.33,6.33,0,0,0,0-1,6.83,6.83,0,0,0,0-1.43c-.18-.81.3-.86.92-.82s1.43,0,2.14,0c.4,0,.52.13.51.52C51.43,48.73,51.44,49.79,51.44,50.85Z"/><path d="M50.27,52.48c1,.07,1.06.07,1,1.15v2.58l-3.11.06c-.35,0-.44-.17-.43-.48,0-.95,0-1.9,0-2.85,0-.3.1-.45.39-.46Z"/></svg>