<svg id="Layer_1" data-name="Layer 1" xmlns="http://www.w3.org/2000/svg" viewBox="0 0 64 72"><path d="M29.88,43.15c.5.45,1,.88,1.48,1.35s.55.78,0,1.33q-1.82,1.83-3.65,3.65l-6,6a1.36,1.36,0,0,0-.12,2,1.4,1.4,0,0,0,2,0c.17-.15.32-.31.48-.47.95-1,1.89-1.9,2.85-2.84a.91.91,0,1,1,1.29,1.29l-.33.33c-1.31,1.31-2.63,2.61-3.94,3.93a1.35,1.35,0,0,0-.1,1.93,1.37,1.37,0,0,0,1.93,0,7.23,7.23,0,0,0,.63-.61l3.55-3.55c.56-.55,1.12-.62,1.52-.22s.35,1-.21,1.52c-1.12,1.12-2.25,2.23-3.36,3.36a1.36,1.36,0,1,0,1.9,1.9C30.91,63,32,61.83,33.16,60.73a1.23,1.23,0,0,1,.78-.43,1.27,1.27,0,0,1,.87.46c.31.39.09.81-.23,1.13-.86.88-1.77,1.71-2.59,2.63a1.73,1.73,0,0,0-.45,1.23,1.65,1.65,0,0,0,.81,1A1.37,1.37,0,0,0,34,66.33c3.06-3.08,6.13-6.13,9.19-9.21a8.1,8.1,0,0,0,2.29-3.65A6.75,6.75,0,0,1,47.72,50c.37-.33.7-.7,1.05-1l1.75-1.68L41.1,37.86c-.1.09-.26.21-.4.35q-1.76,1.74-3.5,3.51c-.81.81-.81.81-1.82.34A5,5,0,0,0,29.88,43.15Z"/><path d="M13.48,24.71l9.42,9.44c.13-.12.29-.26.44-.42,1.22-1.21,2.45-2.41,3.64-3.65a1.06,1.06,0,0,1,1.47-.26c2.05,1.1,3.86.41,5.75-.93-.52-.46-1-.86-1.44-1.29-.7-.67-.69-.87,0-1.57q4.73-4.73,9.43-9.45a2,2,0,0,0,.55-.88,1.21,1.21,0,0,0-.61-1.43,1.41,1.41,0,0,0-1.72.28c-1.07,1-2.12,2.12-3.18,3.18-.52.51-1.07.57-1.47.16s-.34-.93.19-1.46c1.33-1.35,2.68-2.69,4-4a1.37,1.37,0,0,0,.18-2.06,1.41,1.41,0,0,0-2.12.19l-4,4c-.49.48-1,.53-1.42.16s-.37-.94.14-1.46c1.05-1.07,2.12-2.12,3.17-3.18a3.7,3.7,0,0,0,.6-.72,1.29,1.29,0,0,0-.23-1.65,1.34,1.34,0,0,0-1.72-.07,6,6,0,0,0-.63.6c-1.08,1.07-2.13,2.17-3.25,3.2a1.28,1.28,0,0,1-1.08.17c-.23-.08-.43-.54-.46-.85s.21-.52.41-.72c.86-.9,1.76-1.77,2.63-2.67a1.25,1.25,0,0,0,.22-1.55A1.14,1.14,0,0,0,31,5.15a2.49,2.49,0,0,0-1.12.65C27,8.74,24,11.7,21,14.65a10.06,10.06,0,0,0-2.75,4.61,3.49,3.49,0,0,1-1,1.74C16,22.23,14.71,23.5,13.48,24.71Z"/><path d="M24.89,33.77c-.49.56-.9,1.07-1.36,1.56s-.81.57-1.39,0l-5-5c-1.56-1.56-3.12-3.13-4.69-4.68a1.34,1.34,0,0,0-1.93,0,1.4,1.4,0,0,0,0,1.89c.13.15.28.29.42.43.94.93,1.87,1.86,2.8,2.8.56.56.64,1.1.23,1.51s-.94.36-1.55-.24L8.43,28c-.72-.72-1.52-.79-2.11-.18a1.41,1.41,0,0,0,.19,2.07l3.6,3.61c.2.21.42.4.61.62a.87.87,0,0,1,0,1.27.85.85,0,0,1-1.26,0c-.13-.11-.25-.25-.38-.37C8,34,6.88,32.89,5.78,31.81a1.41,1.41,0,0,0-1.59-.4,1.13,1.13,0,0,0-.8,1.19,2.15,2.15,0,0,0,.54,1.16c1,1,2,2,3,3a6.11,6.11,0,0,1,.56.58.87.87,0,0,1,0,1.26.81.81,0,0,1-1.25,0C5.31,37.76,4.45,36.82,3.5,36a1.84,1.84,0,0,0-1.3-.44,1.59,1.59,0,0,0-1,.85A1.4,1.4,0,0,0,1.72,38q4.49,4.47,9,9a10.8,10.8,0,0,0,5.05,2.9,2.22,2.22,0,0,1,1,.57c1.38,1.36,2.73,2.75,4,4L30.16,45c-1.34-1.32-2.73-2.71-4.14-4.08a.93.93,0,0,1-.22-1.29C26.94,37.55,26.28,35.72,24.89,33.77Z"/><path d="M39.18,38.18c.46-.53.89-1.07,1.36-1.57s.76-.51,1.29,0l2.32,2.32c2.47,2.47,4.93,4.94,7.41,7.39a1.34,1.34,0,0,0,1.92.11,1.38,1.38,0,0,0,0-2c-.23-.25-.47-.48-.71-.72l-2.6-2.61c-.38-.38-.52-.87-.13-1.25a1.49,1.49,0,0,1,1.05-.28c.21,0,.43.29.62.48,1.31,1.31,2.6,2.64,4,3.92a2.16,2.16,0,0,0,1.23.49A1.08,1.08,0,0,0,58,43.65a1.43,1.43,0,0,0-.41-1.53L53.51,38c-.54-.54-.6-1.12-.17-1.52s.92-.31,1.46.23c1.14,1.13,2.27,2.28,3.42,3.4a1.36,1.36,0,1,0,1.89-1.91C59,37.09,57.84,36,56.71,34.82c-.51-.51-.58-1.08-.2-1.48s.91-.37,1.46.16c.85.83,1.67,1.68,2.52,2.51a1.36,1.36,0,1,0,1.86-1.95Q57.7,29.38,53,24.72a10.52,10.52,0,0,0-4.5-2.55,3.23,3.23,0,0,1-1.29-.75c-1.35-1.3-2.65-2.65-3.89-3.9L33.87,27c1.33,1.32,2.69,2.7,4.09,4a1,1,0,0,1,.23,1.41A5,5,0,0,0,39.18,38.18Z"/><path d="M29.88,43.15a5,5,0,0,1,5.5-1.09c1,.47,1,.47,1.82-.34q1.74-1.77,3.5-3.51c.14-.14.3-.26.4-.35l9.42,9.45L48.77,49c-.35.34-.68.71-1.05,1a6.75,6.75,0,0,0-2.26,3.44,8.1,8.1,0,0,1-2.29,3.65C40.11,60.2,37,63.25,34,66.33a1.37,1.37,0,0,1-1.63.44,1.65,1.65,0,0,1-.81-1A1.73,1.73,0,0,1,32,64.52c.82-.92,1.73-1.75,2.59-2.63.32-.32.54-.74.23-1.13a1.27,1.27,0,0,0-.87-.46,1.23,1.23,0,0,0-.78.43C32,61.83,30.91,63,29.78,64.08a1.36,1.36,0,1,1-1.9-1.9c1.11-1.13,2.24-2.24,3.36-3.36.56-.57.63-1.1.21-1.52s-1-.33-1.52.22l-3.55,3.55a7.23,7.23,0,0,1-.63.61,1.37,1.37,0,0,1-1.93,0,1.35,1.35,0,0,1,.1-1.93c1.31-1.32,2.63-2.62,3.94-3.93l.33-.33a.91.91,0,1,0-1.29-1.29c-1,.94-1.9,1.89-2.85,2.84-.16.16-.31.32-.48.47a1.4,1.4,0,0,1-2,0,1.36,1.36,0,0,1,.12-2l6-6q1.83-1.81,3.65-3.65c.55-.55.56-.79,0-1.33S30.38,43.6,29.88,43.15Z"/><path d="M13.48,24.71C14.71,23.5,16,22.23,17.26,21a3.49,3.49,0,0,0,1-1.74A10.06,10.06,0,0,1,21,14.65c3-3,5.91-5.91,8.88-8.85A2.49,2.49,0,0,1,31,5.15a1.14,1.14,0,0,1,1.34.65,1.25,1.25,0,0,1-.22,1.55c-.87.9-1.77,1.77-2.63,2.67-.2.2-.44.49-.41.72s.23.77.46.85a1.28,1.28,0,0,0,1.08-.17c1.12-1,2.17-2.13,3.25-3.2a6,6,0,0,1,.63-.6,1.34,1.34,0,0,1,1.72.07,1.29,1.29,0,0,1,.23,1.65,3.7,3.7,0,0,1-.6.72c-1,1.06-2.12,2.11-3.17,3.18-.51.52-.55,1.07-.14,1.46s.93.32,1.42-.16l4-4a1.41,1.41,0,0,1,2.12-.19A1.37,1.37,0,0,1,40,12.39c-1.34,1.35-2.69,2.69-4,4-.53.53-.59,1.05-.19,1.46s.95.35,1.47-.16c1.06-1.06,2.11-2.13,3.18-3.18a1.41,1.41,0,0,1,1.72-.28,1.21,1.21,0,0,1,.61,1.43,2,2,0,0,1-.55.88Q37.49,21.32,32.77,26c-.7.7-.71.9,0,1.57.45.43.92.83,1.44,1.29-1.89,1.34-3.7,2-5.75.93a1.06,1.06,0,0,0-1.47.26c-1.19,1.24-2.42,2.44-3.64,3.65-.15.16-.31.3-.44.42Z"/><path d="M24.89,33.77c1.39,1.95,2.05,3.78.91,5.86A.93.93,0,0,0,26,40.92c1.41,1.37,2.8,2.76,4.14,4.08l-9.48,9.48c-1.28-1.3-2.63-2.69-4-4a2.22,2.22,0,0,0-1-.57A10.8,10.8,0,0,1,10.67,47Q6.2,42.47,1.72,38a1.4,1.4,0,0,1-.51-1.61,1.59,1.59,0,0,1,1-.85A1.84,1.84,0,0,1,3.5,36c1,.84,1.81,1.78,2.73,2.67a.81.81,0,0,0,1.25,0,.87.87,0,0,0,0-1.26A6.11,6.11,0,0,0,7,36.8c-1-1-2-2-3-3a2.15,2.15,0,0,1-.54-1.16,1.13,1.13,0,0,1,.8-1.19,1.41,1.41,0,0,1,1.59.4C6.88,32.89,8,34,9.05,35.08c.13.12.25.26.38.37a.85.85,0,0,0,1.26,0,.87.87,0,0,0,0-1.27c-.19-.22-.41-.41-.61-.62l-3.6-3.61a1.41,1.41,0,0,1-.19-2.07c.59-.61,1.39-.54,2.11.18L12.37,32c.61.6,1.12.68,1.55.24s.33-.95-.23-1.51c-.93-.94-1.86-1.87-2.8-2.8-.14-.14-.29-.28-.42-.43a1.4,1.4,0,0,1,0-1.89,1.34,1.34,0,0,1,1.93,0c1.57,1.55,3.13,3.12,4.69,4.68l5,5c.58.58.84.58,1.39,0S24.4,34.33,24.89,33.77Z"/><path d="M39.18,38.18a5,5,0,0,1-1-5.76A1,1,0,0,0,38,31c-1.4-1.34-2.76-2.72-4.09-4l9.46-9.45c1.24,1.25,2.54,2.6,3.89,3.9a3.23,3.23,0,0,0,1.29.75A10.52,10.52,0,0,1,53,24.72q4.7,4.65,9.34,9.34A1.36,1.36,0,1,1,60.49,36c-.85-.83-1.67-1.68-2.52-2.51-.55-.53-1.06-.57-1.46-.16s-.31,1,.2,1.48c1.13,1.14,2.27,2.27,3.4,3.42a1.36,1.36,0,1,1-1.89,1.91c-1.15-1.12-2.28-2.27-3.42-3.4-.54-.54-1-.61-1.46-.23s-.37,1,.17,1.52l4.07,4.08A1.43,1.43,0,0,1,58,43.65a1.08,1.08,0,0,1-1.09.84A2.16,2.16,0,0,1,55.67,44c-1.35-1.28-2.64-2.61-4-3.92-.19-.19-.41-.48-.62-.48a1.49,1.49,0,0,0-1.05.28c-.39.38-.25.87.13,1.25l2.6,2.61c.24.24.48.47.71.72a1.38,1.38,0,0,1,0,2,1.34,1.34,0,0,1-1.92-.11c-2.48-2.45-4.94-4.92-7.41-7.39l-2.32-2.32c-.53-.52-.79-.53-1.29,0S39.64,37.65,39.18,38.18Z"/></svg>