<svg id="Layer_1" data-name="Layer 1" xmlns="http://www.w3.org/2000/svg" viewBox="0 0 64 72"><path d="M7.66,35.82,6.05,37.16a3.85,3.85,0,0,1-1.94,1.05A3,3,0,0,1,1,36.52a2.94,2.94,0,0,1,.75-3.46l11.63-9.77,10.87-9.1,5.9-5a2.94,2.94,0,0,1,3.7,0L44.27,18l.37.29c.13-.11.07-.24.07-.35,0-1.18,0-2.36,0-3.54A1.18,1.18,0,0,1,46,13.05h4.87a1.16,1.16,0,0,1,1.3,1.29c0,3.3,0,6.59,0,9.88a.78.78,0,0,0,.29.66l6,5C59.75,31,61.05,32,62.32,33.11a3,3,0,0,1-3.54,4.69,25.73,25.73,0,0,1-2-1.62c-.15-.11-.3-.35-.44-.29s-.07.34-.07.52V49.59c0,3,0,6.07,0,9.11a4.63,4.63,0,0,1-4.66,4.72H35.47c-7.71,0-15.42,0-23.13,0a4.41,4.41,0,0,1-4.21-2.75,4.64,4.64,0,0,1-.4-2V36.25A.63.63,0,0,0,7.66,35.82ZM32,60.39h19.5a1.53,1.53,0,0,0,1.68-1.62q0-12.62,0-25.23A.64.64,0,0,0,53,33L45,26.36l-12-10a1.34,1.34,0,0,0-2,0l-6.22,5.19L11.17,32.88a.91.91,0,0,0-.37.79q0,9.61,0,19.23v5.84a1.62,1.62,0,0,0,.14.75,1.63,1.63,0,0,0,1.65.9Z"/><path d="M32.72,35.53h.93c.46,0,.53.12.34.55l-1.12,2.53c-.18.4-.15.44.28.5l1.49.22c.37.06.41.16.17.44L31.7,43.44l-1.05,1.25c-.09.1-.16.26-.32.18s-.06-.24,0-.36l1.08-3c.13-.35.11-.39-.26-.45l-1.55-.26c-.36-.06-.41-.13-.28-.46l1.83-4.48a.52.52,0,0,1,.52-.34h1.07Z"/><path d="M32,50.53c-1.06,0-2.11,0-3.17,0a1.93,1.93,0,0,1-2.07-1.86,2.73,2.73,0,0,0-1.08-1.87,9.62,9.62,0,0,1-3.49-6.58,9.85,9.85,0,1,1,19.65-1,9.55,9.55,0,0,1-3.34,7.34,3.25,3.25,0,0,0-1.35,2.32,1.9,1.9,0,0,1-2.07,1.64C34.09,50.55,33.06,50.53,32,50.53Zm-.1-1.92c.84,0,1.69,0,2.53,0a.79.79,0,0,0,.95-.75A4.15,4.15,0,0,1,37,45.42a7.73,7.73,0,0,0,2.83-7.56,8,8,0,0,0-6.69-6.52A8,8,0,0,0,24.7,36a7.91,7.91,0,0,0,2.2,9.3,4.29,4.29,0,0,1,1.7,2.59c.09.55.4.7.91.69C30.32,48.6,31.12,48.61,31.93,48.61Z"/><path d="M32.05,50.85h2.7c.62,0,1.16.18,1.19.9s-.48,1-1.1,1c-1.9,0-3.8,0-5.69,0-.62,0-1.13-.27-1.09-1s.5-.88,1.1-.88Z"/><path d="M32,54.85c-.5,0-1,0-1.49,0A.92.92,0,0,1,30.39,53a15.26,15.26,0,0,1,3.24,0,.86.86,0,0,1,.82,1,.84.84,0,0,1-.89.87c-.52,0-1.05,0-1.57,0Z"/><path d="M31,25.25a7.25,7.25,0,0,1,0-.93.91.91,0,0,1,.89-.89.86.86,0,0,1,.93.84,12.51,12.51,0,0,1,0,2,.87.87,0,0,1-.93.85.89.89,0,0,1-.9-.89,8.49,8.49,0,0,1,0-1Z"/><path d="M24.43,29.32a.84.84,0,0,1-.48.83.83.83,0,0,1-1-.1,8.38,8.38,0,0,1-1.5-1.76.8.8,0,0,1,.06-1,.84.84,0,0,1,.9-.35A4.74,4.74,0,0,1,24.43,29.32Z"/><path d="M42.64,27.84a4.66,4.66,0,0,1-2,2.39.86.86,0,0,1-.83-.31.83.83,0,0,1-.1-1,7.39,7.39,0,0,1,1.56-1.83.78.78,0,0,1,1-.05A1,1,0,0,1,42.64,27.84Z"/><path d="M21.51,46a.73.73,0,0,1-.23.59,6.26,6.26,0,0,1-2.23,1.3.8.8,0,0,1-1-.53.76.76,0,0,1,.23-1,7.14,7.14,0,0,1,2-1.17A.92.92,0,0,1,21.51,46Z"/><path d="M44.93,47.91a6.34,6.34,0,0,1-2.31-1.47.71.71,0,0,1,.08-.94.8.8,0,0,1,.89-.35,6.81,6.81,0,0,1,2.15,1.25.74.74,0,0,1,.18.94A1,1,0,0,1,44.93,47.91Z"/><path d="M45.4,38c-.74,0-1.19-.15-1.28-.76a.87.87,0,0,1,.74-1,12.74,12.74,0,0,1,1.93-.32.86.86,0,0,1,1,.77.87.87,0,0,1-.74,1C46.44,37.87,45.83,38,45.4,38Z"/><path d="M18.49,38c-.38-.08-1-.18-1.59-.33a.83.83,0,0,1-.69-1,.85.85,0,0,1,1-.8,12.56,12.56,0,0,1,1.82.3c.59.12,1,.45.86,1.1S19.27,38.07,18.49,38Z"/></svg>