<svg id="Layer_1" data-name="Layer 1" xmlns="http://www.w3.org/2000/svg" viewBox="0 0 64 72"><path d="M20.18,14.64c1.18,2,1.4,4.22,1.76,6.37l.37,0c-.19-2.66-.39-5.31-.59-8.16a13.29,13.29,0,0,1,7,0c-.21,2.83-.41,5.49-.61,8.15l.24,0L30,14.52a8.32,8.32,0,0,1,4.63,5.65,3.5,3.5,0,0,0,1.33,2.2c.72.54,1,3,.4,3.64a2.13,2.13,0,0,1-1.19.58,71.48,71.48,0,0,1-19.87,0,1.5,1.5,0,0,1-1.48-1.7c0-1.22,0-2.29,1.22-3.06a2.42,2.42,0,0,0,.69-1.37A8.53,8.53,0,0,1,20.18,14.64Z"/><path d="M36.4,35V32.55a1.05,1.05,0,0,1,1-1.19,46.29,46.29,0,0,0,11.7-4.18,1.92,1.92,0,0,1,1.47,0,48.55,48.55,0,0,0,11.8,4.26,1.4,1.4,0,0,1,.87,1c.24,6.64-.51,13.08-4.08,18.88a16.86,16.86,0,0,1-8,6.44,3.54,3.54,0,0,1-3-.18,17.82,17.82,0,0,1-10.2-12A38.21,38.21,0,0,1,36.4,35Zm24,2.47c0-.75,0-1.49,0-2.24,0-.95-.54-1.41-1.44-1.71-2.69-.88-5.36-1.83-8-2.86a2.86,2.86,0,0,0-2.31,0c-2.63,1.05-5.3,2-8,2.88a1.79,1.79,0,0,0-1.48,1.79A28.32,28.32,0,0,0,41.08,46.9,13.5,13.5,0,0,0,48,54.08a3.8,3.8,0,0,0,3.56,0,13.4,13.4,0,0,0,6.6-6.39A26,26,0,0,0,60.41,37.47Z"/><path d="M25.14,43.29a5.94,5.94,0,0,1-4-1.68,9.87,9.87,0,0,1-3.39-6.21c-.05-.39-.51-.73-.78-1.09a6.41,6.41,0,0,1-1.13-1.62,18.8,18.8,0,0,1-.72-3.41c0-.28.37-.87.59-.88a24.24,24.24,0,0,1,2.82.16,70.43,70.43,0,0,0,14.15-.11,8.85,8.85,0,0,1,2-.05,1,1,0,0,1,.56.81c-.27,2-.14,4.1-2.27,5.3-.23.13-.34.6-.38.93a9.55,9.55,0,0,1-3.31,6.13A6,6,0,0,1,25.14,43.29Z"/><path d="M17.19,46.25l7,11.68c-.41,0-.68,0-.94,0H3c-1.74,0-2.34-.84-1.76-2.46A5.86,5.86,0,0,1,4.55,52Q10,49.63,15.36,47.2C15.94,46.94,16.49,46.62,17.19,46.25Z"/><path d="M45.14,58l-.39,0H26.2l7-11.7c1.28.62,2.52,1.2,3.74,1.81a1,1,0,0,1,.46.55A19.61,19.61,0,0,0,45.14,58Z"/><path d="M25.2,56.63q-3.52-5.91-6.77-11.34l1.18-2.95c4.48,3.44,7.23,3.43,11.19-.06l1.17,3Z"/><path d="M40.55,37.72c.08-2.43.1-2.36,2.31-3.1S47,33,49,32.27a2.49,2.49,0,0,1,1.55,0c2.54.87,5.07,1.81,7.58,2.76.28.11.65.47.66.73a23.76,23.76,0,0,1-2.29,11.79,11.86,11.86,0,0,1-5.63,5.16,2.35,2.35,0,0,1-2.23,0,11.81,11.81,0,0,1-6.7-8C41.35,42.41,41,40.05,40.55,37.72Zm8.75,7.63-3.47-4c-.38-.44-.86-.82-1.31-.27a1.34,1.34,0,0,0,.16,1.25c1.25,1.54,2.58,3,3.91,4.51.67.76,1.12.72,1.66-.13.93-1.47,1.83-3,2.75-4.44.74-1.21,1.52-2.4,2.2-3.64.14-.26-.11-.73-.17-1.11a3.91,3.91,0,0,0-1.1.33c-.24.15-.35.51-.52.79Z"/></svg>