<svg id="Layer_1" data-name="Layer 1" xmlns="http://www.w3.org/2000/svg" viewBox="0 0 64 72"><path d="M53.27,66.55,52,60.22H52v.31q0,3.15,0,6.3a.39.39,0,0,1-.29.44,21.1,21.1,0,0,1-11.28,1.22A22.63,22.63,0,0,1,36,67.27a.37.37,0,0,1-.27-.42c0-2.19,0-4.39-.06-6.6-.41,2.09-.82,4.18-1.23,6.32-.43-.22-.83-.42-1.22-.64a25.33,25.33,0,0,1-4-2.78.47.47,0,0,1-.09-.39c.65-2.67,1.32-5.33,2-8,.21-.85.27-1.74.49-2.58a6,6,0,0,1,1.94-3.13,3.59,3.59,0,0,1,2.3-.92c1.84,0,3.68,0,5.55,0,.18.53.37,1.06.54,1.6.07.22.15.32.41.31,1,0,2,0,3,0,.42,0,.58-.18.68-.54s.25-.76.35-1.15a.31.31,0,0,1,.35-.25c1.58,0,3.16,0,4.74,0a4.4,4.4,0,0,1,4,2.31,8.84,8.84,0,0,1,1.06,3.1c.46,2.3,1,4.58,1.54,6.86.19.81.43,1.6.63,2.41a.47.47,0,0,1-.11.38,26.29,26.29,0,0,1-4.91,3.25C53.51,66.46,53.41,66.49,53.27,66.55Zm-9.41-2.47c1.17-.88,2.31-1.75,3.46-2.6a.49.49,0,0,0,.23-.56c-.29-1.53-.57-3.06-.84-4.58l-.93-5.08c0-.17-.05-.3-.29-.3H42.21a.35.35,0,0,0-.26.23c-.12.54-.22,1.09-.32,1.63l-.81,4.55c-.21,1.18-.44,2.36-.65,3.54,0,.14,0,.37.08.44C41.44,62.27,42.63,63.16,43.86,64.08Z"/><path d="M27.56,63.07a.5.5,0,0,0,.18.74c.89.68,1.76,1.38,2.65,2.09l-.25,0q-9.87,0-19.73,0a5,5,0,0,1-5-5.05q0-10.26,0-20.53,0-13.28,0-26.57a15.76,15.76,0,0,1,.07-2.06A5,5,0,0,1,10.17,7.5c2.48,0,5,0,7.45,0l.17,0c-.18.75-.35,1.48-.53,2.21s-.16.62-.8.62H10.9A2.52,2.52,0,0,0,8.23,13V34.43q0,12.85,0,25.71a3,3,0,0,0,.51,1.92,2.52,2.52,0,0,0,2.1,1H27.56Z"/><path d="M50.15,39.31c0,3.19-1.59,5.62-4,6.61a6.17,6.17,0,0,1-7.57-2.51,7,7,0,0,1,1.12-8.64,6.1,6.1,0,0,1,9.16,1A6.71,6.71,0,0,1,50.15,39.31Z"/><path d="M18.21,11.74l1.42-5.68c.84,0,1.67,0,2.49,0a.49.49,0,0,0,.57-.36,3.92,3.92,0,0,1,3.47-2.45,4.39,4.39,0,0,1,4.42,1.92,2,2,0,0,1,.28.61c.05.25.18.28.4.28h2.62l1.42,5.68ZM24.14,6h5.24a2.79,2.79,0,0,0-2.57-1.4A2.8,2.8,0,0,0,24.14,6Z"/><path d="M48.13,33.07a8.08,8.08,0,0,0-2.68-1.19c-.08,0-.16-.21-.16-.32,0-1.29,0-2.59,0-3.88V13a2.52,2.52,0,0,0-2.61-2.63H36.42l-.71-2.85H43a5,5,0,0,1,5.09,5.06V33.07Z"/><path d="M18.21,47.4H16a2,2,0,0,1-2-2V40.88a2,2,0,0,1,2-2h4.49a2,2,0,0,1,2,2c0,1.49,0,3,0,4.49a2,2,0,0,1-2,2Zm0-1.07h2.1a1,1,0,0,0,1.08-1.1V41a1,1,0,0,0-1.06-1.08c-1.43,0-2.87,0-4.3,0A1,1,0,0,0,15,41v4.31a1,1,0,0,0,1.06,1Z"/><path d="M22.48,54.52c0,.75,0,1.5,0,2.25a2,2,0,0,1-2,2c-1.5,0-3,0-4.49,0a2,2,0,0,1-2-2V52.28a2,2,0,0,1,2-2h4.53a2,2,0,0,1,2,2v2.31Zm-1.07,0c0-.73,0-1.45,0-2.17a1,1,0,0,0-1-1c-1.47,0-2.94,0-4.41,0a1,1,0,0,0-1,1.07v4.27a1,1,0,0,0,1.07,1.07h4.27a1,1,0,0,0,1.07-1.07C21.42,55.94,21.41,55.23,21.41,54.52Z"/><path d="M20.45,16.06c-.33.35-.61.68-.92,1a.51.51,0,0,1-.33.07H16.14A1,1,0,0,0,15,18.26v4.13a1,1,0,0,0,1.12,1.13h4c1,0,1.33-.35,1.33-1.32,0-1.13,0-2.25,0-3.38a1,1,0,0,1,.34-.85c.2-.18.39-.37.65-.62a6.75,6.75,0,0,1,.09.68c0,1.51,0,3,0,4.53a2,2,0,0,1-2,2q-2.28,0-4.56,0a2,2,0,0,1-2-2c0-1.52,0-3.05,0-4.57a2,2,0,0,1,2-2H20.2Z"/><path d="M22.41,28.84c0,.22.07.44.07.67v4.38a2,2,0,0,1-2.1,2.1H16a2,2,0,0,1-2.07-2.06V29.51a2,2,0,0,1,2.18-2.07c1.28,0,2.56,0,3.84,0h.51c-.33.36-.6.68-.9,1a.55.55,0,0,1-.36.1H16.14A1,1,0,0,0,15,29.64v4.17a1,1,0,0,0,1.1,1.11h4.2a1,1,0,0,0,1.11-1.1c0-1.22,0-2.43,0-3.64a1,1,0,0,1,.33-.78c.19-.2.37-.42.56-.63Z"/><path d="M32.46,21H26.05c-.25,0-.56,0-.63-.26a2.19,2.19,0,0,1,0-.92c0-.1.25-.2.4-.24a2.33,2.33,0,0,1,.53,0c4.15,0,8.3,0,12.46,0,.8,0,.86.38.73,1.12,0,.27-.31.32-.56.32H32.46Z"/><path d="M32.42,32.44H26.05a.73.73,0,0,1-.65-1.16.77.77,0,0,1,.39-.26.85.85,0,0,1,.32,0c4.24,0,8.47,0,12.71,0,.84,0,.83.44.73,1.08,0,.31-.33.36-.62.36H32.42Z"/><path d="M37.18,43.83H26.07a.71.71,0,0,1-.7-1.1.69.69,0,0,1,.5-.31q4.39,0,8.8,0h1.67a.29.29,0,0,1,.33.23C36.81,43,37,43.39,37.18,43.83Z"/><path d="M18,31.75c1.65-2.84,3.83-5.16,5.58-6l.58.89-1.4,1.12a12.46,12.46,0,0,0-3.89,5.51.51.51,0,0,1-.38.34,6.64,6.64,0,0,0-1,.52,4.63,4.63,0,0,0-1.59-2.95,5.33,5.33,0,0,0,.47-.62,5.52,5.52,0,0,0,.25-.81A4.65,4.65,0,0,1,18,31.75Z"/><path d="M17.46,22.72a4.72,4.72,0,0,0-1.64-3c.55-.29.64-.82.75-1.41a4.82,4.82,0,0,1,1.38,2,15.32,15.32,0,0,1,5.57-6l.6.9-1.38,1.1a12.5,12.5,0,0,0-3.88,5.43.65.65,0,0,1-.48.48A5.14,5.14,0,0,0,17.46,22.72Z"/><path d="M29.51,55.23H27.19c-.45,0-.91,0-1.36,0s-.5-.23-.5-.67.11-.74.49-.75c1.3,0,2.61,0,4,0Z"/><path d="M46.9,60.26a2.58,2.58,0,0,1-.34-.12q-2.33-1.34-4.64-2.68a1.5,1.5,0,0,1-.49-.48c-.06-.09,0-.29.09-.41s.24,0,.34,0l4.61,2.67A.93.93,0,0,1,46.9,60.26Z"/><path d="M45.54,62.19a3,3,0,0,1-.4-.16c-1.28-.74-2.56-1.47-3.83-2.23a.82.82,0,0,1-.35-.52c-.05-.29.17-.39.44-.24l2.73,1.59c.52.29,1,.58,1.54.89a2,2,0,0,1,.3.34Z"/><path d="M46.3,57.26l-1-.56c-1.05-.6-2.09-1.21-3.13-1.82a.74.74,0,0,1-.27-.38.42.42,0,0,1,.08-.38c.07,0,.27,0,.37.06,1.19.67,2.36,1.36,3.54,2A.9.9,0,0,1,46.3,57.26Z"/><path d="M45.79,54.21a2.68,2.68,0,0,1-.28-.1c-1-.57-2-1.13-3-1.72a.73.73,0,0,1-.23-.54c0-.21.17-.3.38-.18l2.7,1.57A.93.93,0,0,1,45.79,54.21Z"/></svg>